<?xml version="1.0" standalone="no"?>
<!DOCTYPE svg PUBLIC "-//W3C//DTD SVG 20010904//EN"
 "http://www.w3.org/TR/2001/REC-SVG-20010904/DTD/svg10.dtd">
<svg version="1.0" xmlns="http://www.w3.org/2000/svg"
 width="3000.000000pt" height="3000.000000pt" viewBox="0 0 3000.000000 3000.000000"
 preserveAspectRatio="xMidYMid meet">
<metadata>
Created by potrace 1.14, written by Peter Selinger 2001-2017
</metadata>
<g transform="translate(0.000000,3000.000000) scale(0.100000,-0.100000)"
fill="#000000" stroke="none">
<path d="M8340 26198 c0 -5 -4 -6 -10 -3 -15 9 -114 -40 -148 -73 -17 -17 -34
-31 -39 -33 -12 -6 -65 -79 -57 -79 4 0 -1 -9 -11 -20 -10 -11 -15 -20 -10
-20 4 0 2 -6 -4 -14 -21 -25 -30 -138 -17 -206 9 -45 28 -90 39 -90 5 0 6 -4
2 -9 -3 -5 1 -15 8 -23 7 -7 13 -16 13 -20 -1 -4 6 -15 14 -25 9 -10 17 -22
19 -28 2 -5 6 -17 9 -25 3 -8 10 -22 17 -30 7 -8 23 -35 36 -60 13 -25 28 -48
33 -52 5 -3 11 -14 12 -24 2 -9 6 -20 11 -23 4 -3 19 -26 32 -51 13 -25 30
-52 38 -61 7 -9 10 -19 7 -22 -4 -4 1 -9 10 -13 9 -3 14 -10 11 -14 -3 -5 1
-15 9 -23 8 -8 12 -17 9 -21 -4 -3 -1 -6 5 -6 7 0 12 -7 12 -15 0 -8 4 -15 10
-15 5 0 9 -3 9 -7 -3 -20 2 -34 11 -28 6 3 10 -3 10 -14 0 -12 5 -21 10 -21 6
0 10 -5 10 -11 0 -13 80 -152 92 -160 6 -3 9 -10 9 -15 -2 -21 11 -44 21 -38
6 4 8 2 4 -4 -3 -6 0 -16 6 -24 7 -7 24 -34 37 -60 13 -27 29 -48 34 -48 6 0
8 -3 4 -6 -8 -9 21 -64 33 -64 6 0 9 -3 8 -7 -2 -7 29 -67 63 -123 5 -8 18
-33 30 -55 12 -22 25 -42 29 -45 3 -3 13 -20 21 -37 8 -18 16 -33 20 -33 3 0
11 -16 19 -35 8 -19 17 -35 22 -35 4 0 8 -6 8 -13 0 -7 8 -22 18 -33 10 -10
25 -34 32 -51 8 -18 19 -33 23 -33 5 0 5 -4 2 -10 -3 -5 -1 -10 5 -10 6 0 8
-4 5 -10 -3 -5 -1 -10 4 -10 6 0 11 -7 11 -15 0 -8 4 -15 8 -15 8 0 45 -66 46
-82 1 -4 9 -16 18 -27 9 -11 14 -22 11 -25 -4 -3 -1 -6 5 -6 7 0 12 -6 12 -14
0 -7 7 -19 15 -26 8 -7 12 -16 9 -21 -3 -5 0 -9 5 -9 6 0 11 -5 11 -11 0 -6 9
-24 21 -40 11 -16 18 -29 14 -29 -3 0 -1 -6 5 -12 26 -32 58 -87 52 -92 -3 -3
0 -6 7 -6 7 0 9 -4 6 -10 -3 -5 -1 -10 4 -10 6 0 11 -7 11 -15 0 -8 5 -15 10
-15 6 0 10 -5 10 -11 0 -22 97 -103 159 -132 55 -26 76 -31 140 -30 42 0 85 3
96 6 11 3 27 7 35 9 8 1 17 5 20 8 3 3 21 13 40 23 37 19 120 89 120 101 0 4
6 14 14 22 8 8 25 40 37 71 22 59 30 164 16 227 -7 31 -49 116 -79 159 -11 15
-16 27 -13 27 4 0 -1 7 -9 16 -9 8 -14 19 -11 24 3 4 -2 10 -10 14 -8 3 -15
10 -15 16 0 6 -7 18 -15 27 -8 8 -13 19 -10 24 4 5 1 9 -5 9 -6 0 -9 4 -6 9 3
5 -1 12 -9 15 -8 3 -14 9 -13 13 3 14 -25 63 -35 63 -6 0 -7 3 -4 7 7 6 -29
73 -46 84 -5 3 -8 9 -8 13 3 20 0 26 -11 20 -6 -4 -8 -3 -4 4 3 6 0 17 -8 25
-8 8 -12 17 -9 21 4 3 1 6 -5 6 -7 0 -12 7 -12 15 0 8 -5 15 -12 15 -6 0 -9 3
-5 6 3 3 -8 27 -23 52 -16 26 -37 63 -47 82 -9 19 -23 41 -30 48 -7 7 -13 18
-13 24 0 6 -8 17 -17 25 -10 8 -12 12 -5 8 7 -3 1 11 -14 32 -14 21 -37 59
-50 85 -13 26 -28 49 -34 53 -6 4 -8 10 -6 14 3 4 -4 17 -14 29 -11 12 -20 28
-20 36 0 8 -6 19 -14 23 -8 4 -15 11 -15 16 -1 14 -34 72 -45 79 -6 4 -11 11
-11 16 0 15 -39 82 -48 82 -4 0 -5 5 -2 10 3 6 1 10 -5 10 -6 0 -9 4 -5 9 3 5
1 12 -5 16 -5 3 -17 21 -26 40 -9 19 -21 35 -26 35 -5 0 -7 4 -4 9 3 4 -6 23
-19 41 -14 19 -25 40 -25 47 0 7 -5 13 -11 13 -5 0 -8 4 -5 9 3 5 -1 12 -10
15 -9 4 -14 9 -11 12 6 7 -51 105 -67 116 -6 4 -8 8 -3 8 4 0 0 12 -10 26 -29
44 -53 88 -59 107 -4 9 -11 17 -16 17 -5 0 -7 4 -4 9 3 5 -1 14 -9 21 -8 7
-15 19 -15 26 0 8 -3 14 -8 14 -4 0 -13 15 -21 33 -8 17 -17 34 -20 37 -4 3
-18 26 -31 53 -14 26 -28 47 -32 47 -5 0 -8 9 -8 20 0 10 -8 24 -17 29 -10 6
-14 11 -8 11 5 0 -17 25 -49 55 -33 30 -62 52 -67 50 -4 -3 -9 0 -11 5 -2 6
-10 12 -18 13 -8 2 -21 7 -29 11 -29 19 -211 30 -211 14z"/>
<path d="M21900 26093 c-8 -2 -22 -7 -30 -10 -8 -4 -21 -5 -27 -4 -7 1 -13 -3
-13 -9 0 -5 -3 -9 -7 -8 -14 3 -48 -15 -65 -35 -10 -11 -18 -16 -18 -11 0 10
-73 -66 -84 -87 -3 -8 -17 -32 -31 -54 -14 -22 -28 -47 -32 -55 -3 -8 -20 -35
-36 -59 -17 -24 -24 -41 -16 -37 8 4 6 1 -3 -7 -10 -8 -18 -19 -18 -24 0 -6
-7 -16 -15 -23 -8 -7 -12 -16 -9 -21 3 -5 0 -9 -6 -9 -6 0 -8 -4 -5 -10 3 -5
2 -10 -3 -10 -4 0 -16 -15 -25 -32 -18 -34 -29 -53 -61 -102 -14 -21 -15 -27
-5 -22 7 4 6 1 -3 -7 -10 -8 -18 -18 -18 -22 0 -4 -9 -19 -20 -35 -11 -15 -17
-30 -13 -34 3 -3 1 -6 -5 -6 -7 0 -12 -6 -12 -14 0 -8 -4 -16 -9 -18 -5 -1
-11 -10 -13 -18 -2 -8 -11 -23 -20 -34 -10 -10 -15 -22 -13 -26 3 -5 -2 -11
-11 -14 -9 -4 -14 -13 -10 -22 3 -8 2 -12 -4 -9 -9 5 -12 -1 -9 -21 0 -4 -3
-10 -8 -13 -15 -11 -43 -60 -43 -76 0 -9 -4 -14 -9 -11 -4 3 -13 -13 -20 -35
-7 -22 -19 -43 -27 -46 -7 -3 -11 -9 -8 -14 3 -5 0 -9 -6 -9 -6 0 -9 -4 -5 -9
3 -5 1 -12 -5 -16 -6 -3 -18 -23 -28 -43 -25 -50 -45 -84 -59 -100 -7 -7 -13
-20 -13 -28 0 -8 -5 -14 -11 -14 -5 0 -7 -4 -4 -10 3 -5 1 -10 -4 -10 -6 0
-11 -7 -11 -15 0 -8 -5 -15 -11 -15 -5 0 -7 -4 -4 -10 3 -5 3 -10 -2 -10 -4 0
-14 -15 -22 -32 -8 -18 -17 -35 -20 -38 -3 -3 -13 -19 -22 -35 -29 -56 -44
-80 -54 -87 -7 -5 -7 -8 0 -8 6 0 1 -7 -9 -15 -11 -8 -16 -15 -12 -15 4 0 -2
-13 -13 -29 -12 -16 -21 -34 -21 -40 0 -6 -5 -11 -11 -11 -5 0 -7 -5 -4 -10 3
-6 -1 -13 -9 -16 -9 -3 -13 -10 -10 -15 3 -5 0 -9 -6 -9 -6 0 -8 -4 -5 -10 3
-5 1 -10 -5 -10 -6 0 -9 -4 -6 -8 3 -5 -3 -18 -14 -29 -10 -12 -16 -24 -13
-27 4 -3 1 -6 -5 -6 -7 0 -12 -6 -12 -14 0 -7 -7 -19 -15 -26 -8 -7 -13 -16
-10 -20 2 -4 -5 -17 -16 -28 -11 -12 -17 -22 -14 -22 4 0 -3 -13 -14 -29 -12
-16 -21 -34 -21 -40 0 -6 -5 -11 -11 -11 -5 0 -8 -4 -5 -9 3 -5 -1 -14 -9 -21
-8 -7 -15 -18 -15 -25 0 -8 -4 -15 -8 -17 -9 -3 -16 -15 -67 -115 -16 -32 -34
-61 -40 -65 -5 -4 -7 -8 -3 -8 4 0 1 -18 -7 -40 -16 -44 -13 -139 5 -185 6
-16 12 -32 12 -35 0 -3 5 -16 10 -30 5 -14 9 -26 8 -28 -1 -2 9 -12 21 -23 12
-10 19 -19 15 -19 -3 0 8 -12 25 -27 17 -16 42 -39 57 -53 14 -14 26 -24 27
-22 0 2 14 -2 30 -8 103 -40 204 -46 276 -16 20 8 40 12 44 8 5 -4 5 -1 1 6
-6 11 5 17 27 13 4 0 7 3 7 9 0 5 4 10 10 10 13 0 109 98 102 104 -3 3 0 6 6
6 7 0 12 6 12 14 0 7 7 19 15 26 8 7 12 16 9 21 -3 5 0 9 5 9 6 0 11 7 11 15
0 8 5 15 12 15 6 0 8 3 5 6 -4 4 1 19 11 33 10 14 24 38 32 54 7 15 17 27 22
27 5 0 7 4 4 9 -3 4 5 21 19 37 13 15 22 31 20 35 -3 4 1 12 9 18 8 7 17 23
20 36 4 14 11 25 16 25 6 0 10 7 10 15 0 8 5 15 11 15 5 0 7 5 4 10 -3 6 -1
10 5 10 6 0 9 4 5 9 -3 5 -1 12 4 16 6 3 20 26 32 50 12 25 27 45 31 45 5 0 6
5 3 10 -3 6 -3 10 2 10 4 0 17 18 27 40 11 22 23 40 28 40 5 0 7 4 3 10 -3 5
3 18 15 30 11 11 19 21 19 23 -5 7 14 47 22 47 6 0 7 5 4 10 -3 6 -1 10 4 10
6 0 11 7 11 15 0 8 5 15 11 15 5 0 8 4 5 9 -3 5 1 14 9 21 8 7 15 19 15 26 0
8 5 14 11 14 5 0 7 5 4 10 -3 6 -1 10 4 10 6 0 11 6 11 14 0 8 7 22 16 30 8 9
12 16 7 16 -4 0 1 7 11 15 11 8 17 15 13 15 -4 0 -1 14 8 30 9 17 20 30 26 30
6 0 8 4 4 9 -3 5 1 16 9 23 7 8 17 24 20 36 4 12 12 22 17 22 6 0 7 5 4 10 -3
6 1 13 9 16 9 3 14 10 11 14 -3 5 -1 11 5 15 10 6 47 72 49 88 1 4 8 15 17 25
25 27 82 130 76 136 -3 3 1 6 8 6 7 0 11 3 7 6 -3 3 3 15 13 27 11 11 17 24
14 29 -3 4 -1 8 4 8 4 0 19 21 32 48 13 26 30 53 37 60 7 8 11 17 8 22 -3 5
-2 10 2 12 10 4 63 85 63 95 0 5 11 25 25 44 13 20 21 39 18 43 -4 3 -1 6 6 6
7 0 10 4 7 9 -3 5 1 12 10 15 8 3 12 10 9 16 -3 5 -2 10 2 10 5 0 19 19 31 43
13 23 39 71 58 107 20 36 36 73 37 82 1 10 4 18 7 18 8 0 9 7 13 93 1 37 0 67
-4 67 -4 0 -6 6 -6 13 2 23 -24 97 -34 97 -6 0 -8 4 -5 8 3 5 -4 19 -15 30
-11 12 -17 22 -13 22 20 0 -88 85 -143 112 -52 25 -78 32 -141 34 -42 1 -84 0
-92 -3z"/>
<path d="M14588 23844 c-2 -1 -53 -6 -113 -9 -61 -3 -139 -8 -175 -11 -36 -3
-87 -7 -115 -10 -27 -2 -68 -6 -90 -8 -115 -12 -162 -17 -185 -21 -14 -2 -54
-7 -90 -10 -36 -4 -74 -9 -85 -11 -11 -3 -38 -7 -60 -10 -60 -7 -119 -16 -230
-36 -58 -10 -70 -12 -125 -22 -14 -2 -41 -7 -60 -11 -19 -3 -44 -8 -55 -10
-11 -2 -20 -4 -20 -5 0 -1 -11 -3 -25 -5 -14 -1 -43 -7 -65 -13 -22 -6 -58
-14 -80 -18 -49 -8 -69 -12 -72 -14 -2 -2 -7 -4 -13 -5 -5 -1 -13 -4 -17 -5
-5 -1 -11 -2 -14 -2 -3 1 -30 -6 -60 -14 -30 -8 -67 -17 -84 -20 -16 -3 -37
-8 -45 -11 -8 -3 -21 -7 -29 -9 -8 -1 -25 -5 -38 -9 -13 -3 -25 -5 -28 -6 -3
0 -22 -6 -44 -14 -22 -7 -42 -11 -45 -8 -3 4 -6 1 -6 -5 0 -6 -9 -9 -20 -7
-11 2 -20 1 -20 -3 0 -4 -11 -9 -24 -10 -13 -1 -37 -7 -52 -13 -16 -7 -36 -13
-44 -15 -8 -2 -44 -12 -79 -24 -35 -11 -70 -20 -77 -20 -8 0 -14 -5 -14 -12 0
-6 -3 -9 -6 -5 -4 3 -22 0 -40 -8 -19 -8 -34 -12 -34 -9 0 2 -16 -3 -36 -11
-20 -8 -48 -17 -63 -20 -14 -2 -27 -9 -29 -14 -2 -6 -10 -7 -18 -4 -8 3 -14 0
-14 -6 0 -6 -3 -10 -7 -9 -13 2 -67 -14 -80 -25 -7 -5 -13 -6 -13 -2 0 4 -6 2
-13 -4 -8 -6 -17 -8 -20 -4 -4 3 -7 0 -7 -7 0 -7 -3 -11 -6 -7 -3 3 -26 -3
-50 -13 -24 -11 -48 -20 -52 -21 -9 -2 -44 -15 -79 -31 -16 -6 -32 -12 -38
-13 -28 -6 -55 -18 -55 -27 0 -5 -4 -7 -9 -3 -5 3 -12 1 -16 -5 -4 -6 -10 -8
-15 -5 -5 3 -14 0 -22 -7 -7 -7 -22 -15 -33 -16 -11 -2 -33 -11 -50 -20 -16
-9 -32 -17 -35 -17 -22 -4 -80 -31 -80 -37 0 -4 -3 -7 -7 -6 -12 4 -103 -36
-103 -45 0 -5 -4 -6 -9 -2 -5 3 -15 -1 -23 -8 -7 -7 -17 -14 -23 -15 -29 -6
-75 -27 -75 -34 0 -4 -3 -8 -7 -7 -16 2 -53 -14 -53 -22 0 -5 -6 -9 -13 -9
-17 0 -80 -30 -88 -43 -3 -5 -10 -9 -15 -9 -22 -2 -64 -21 -64 -30 0 -5 -4 -7
-9 -3 -5 3 -16 -1 -24 -9 -8 -8 -27 -18 -42 -22 -14 -4 -29 -13 -32 -20 -3 -8
-9 -11 -15 -8 -5 3 -18 -2 -29 -12 -11 -10 -27 -19 -35 -20 -9 -1 -23 -9 -32
-16 -10 -8 -35 -23 -57 -33 -22 -11 -50 -29 -63 -40 -13 -11 -27 -19 -30 -19
-12 2 -52 -19 -52 -28 0 -4 -7 -8 -15 -8 -8 0 -15 -4 -15 -10 0 -5 -3 -9 -7
-8 -15 3 -63 -22 -63 -32 0 -5 -7 -10 -15 -10 -8 0 -15 -5 -15 -11 0 -5 -4 -7
-10 -4 -5 3 -10 3 -10 -2 0 -9 -62 -47 -72 -45 -5 1 -8 -3 -8 -9 0 -5 -4 -8
-9 -5 -5 3 -12 -1 -15 -10 -4 -9 -9 -14 -12 -11 -4 3 -15 -3 -27 -14 -11 -10
-27 -19 -34 -19 -7 0 -13 -5 -13 -11 0 -5 -4 -8 -9 -5 -5 3 -11 -1 -15 -9 -3
-8 -12 -15 -21 -15 -8 0 -15 -5 -15 -11 0 -5 -4 -8 -9 -5 -5 3 -12 -1 -15 -10
-3 -8 -10 -13 -15 -9 -6 3 -13 -1 -18 -8 -4 -7 -26 -24 -48 -37 -22 -13 -43
-29 -47 -34 -4 -6 -8 -7 -8 -3 0 4 -12 -4 -27 -18 -15 -14 -33 -25 -39 -25 -7
0 -14 -7 -18 -15 -3 -8 -12 -15 -21 -15 -8 0 -15 -4 -15 -10 0 -5 -6 -10 -14
-10 -8 0 -16 -3 -18 -8 -1 -4 -28 -25 -58 -47 -30 -22 -58 -44 -62 -50 -5 -6
-8 -6 -8 0 0 6 -7 1 -15 -9 -8 -11 -15 -17 -15 -14 0 3 -16 -10 -36 -29 -20
-19 -38 -32 -41 -29 -2 2 -17 -8 -33 -22 -41 -38 -58 -52 -65 -52 -3 0 -13 -8
-23 -17 -33 -32 -72 -63 -78 -63 -4 0 -15 -10 -26 -22 -11 -13 -23 -23 -26
-23 -4 0 -16 -9 -28 -20 -12 -11 -38 -33 -59 -50 -21 -16 -45 -38 -54 -47 -8
-10 -21 -18 -29 -18 -7 0 -10 -4 -7 -10 3 -5 2 -10 -2 -10 -5 0 -26 -16 -46
-35 -20 -19 -37 -33 -37 -31 0 3 -21 -17 -46 -42 -26 -26 -59 -55 -73 -64 -34
-23 -22 -23 130 3 244 42 405 7 539 -117 20 -19 43 -46 51 -61 8 -15 22 -35
32 -45 9 -10 17 -28 17 -41 0 -13 4 -27 9 -33 29 -32 64 -295 59 -455 -1 -54
1 -101 6 -106 5 -4 7 -3 4 2 -5 9 26 46 37 45 6 -1 41 30 110 95 45 44 87 79
95 80 2 0 16 11 31 25 15 14 39 34 54 45 14 11 34 28 43 38 9 9 20 17 24 17 4
0 18 10 31 23 37 35 66 57 76 57 5 0 12 7 15 16 4 9 9 14 13 11 3 -4 14 3 24
15 11 11 19 18 19 15 0 -4 9 1 19 11 35 31 55 47 58 45 1 -1 14 9 29 22 15 14
31 22 37 18 5 -3 7 -1 3 5 -3 6 2 13 13 17 11 3 34 19 53 35 18 16 39 30 46
30 6 0 12 4 12 10 0 5 3 9 8 8 10 -2 72 35 72 45 0 4 5 7 11 7 7 0 18 8 26 18
10 11 12 12 8 2 -4 -8 3 -4 14 9 12 13 21 19 21 15 0 -5 7 -1 14 9 8 10 17 18
20 17 10 -2 130 72 144 90 11 13 12 13 7 0 -4 -8 1 -6 9 4 9 11 16 16 16 12 0
-8 61 32 71 47 3 5 10 8 15 8 17 -1 44 10 44 20 0 5 7 9 15 9 8 0 15 4 15 10
0 5 3 9 8 8 12 -3 62 25 62 34 0 5 5 6 10 3 6 -3 10 -1 10 5 0 6 5 8 10 5 6
-3 10 -1 10 5 0 6 4 9 9 6 5 -3 14 1 21 9 7 8 19 15 26 15 8 0 14 5 14 11 0 5
5 7 10 4 6 -3 10 -2 10 4 0 5 14 12 30 16 17 4 30 10 30 14 0 4 25 18 55 31
30 13 55 28 55 32 0 4 3 8 8 7 15 -2 52 14 52 23 0 5 5 6 10 3 6 -3 10 -1 10
5 0 6 5 8 10 5 6 -3 10 -2 10 4 0 6 7 8 15 5 8 -4 15 -1 15 6 0 6 5 8 10 5 6
-3 10 -2 10 4 0 5 10 13 23 17 12 5 24 9 27 10 3 1 15 5 28 9 12 4 22 12 22
17 0 5 5 6 10 3 6 -3 10 -1 10 6 0 7 3 10 6 6 4 -3 21 1 38 10 17 10 33 18 36
19 3 1 15 5 28 9 12 4 22 11 22 16 0 5 3 8 8 7 12 -4 112 35 112 44 0 4 3 7 8
6 14 -3 62 14 62 23 0 5 6 6 13 3 8 -3 19 2 26 10 7 8 19 12 27 9 8 -3 14 1
14 8 0 7 3 10 6 6 4 -3 24 3 45 14 22 11 39 17 39 15 0 -3 32 8 70 24 39 16
70 26 70 23 0 -3 6 -1 13 4 13 11 280 103 296 103 5 0 22 5 38 11 15 6 28 10
28 9 0 -1 14 4 30 10 17 7 38 13 49 16 10 2 44 11 75 20 31 10 61 18 66 19 6
1 13 3 18 5 4 1 12 4 17 5 6 1 11 3 13 5 1 1 11 3 22 5 11 2 30 6 43 9 12 3
30 8 40 10 9 2 46 12 82 21 36 9 74 19 85 21 11 2 31 6 45 9 14 4 36 8 50 11
14 2 52 11 85 19 33 8 78 17 100 20 22 3 46 8 53 11 8 2 37 7 65 10 29 4 55 8
59 11 7 4 94 15 131 17 9 0 17 3 17 6 0 3 12 6 28 6 15 1 46 4 70 8 23 3 61 8
85 11 23 3 58 7 77 10 19 3 60 8 90 10 30 2 75 7 100 10 197 21 382 28 750 28
402 0 545 -6 865 -39 101 -10 186 -20 236 -29 20 -3 51 -8 70 -10 71 -8 128
-17 194 -30 26 -5 48 -9 105 -19 19 -3 49 -9 65 -12 17 -3 39 -7 50 -9 11 -2
31 -6 45 -9 14 -3 48 -10 75 -16 28 -6 61 -13 75 -16 14 -3 34 -7 45 -9 11 -2
20 -4 20 -5 0 -2 9 -4 20 -6 29 -4 60 -12 60 -15 0 -1 10 -3 22 -4 12 -1 30
-6 40 -10 10 -4 27 -9 38 -11 19 -3 72 -18 125 -34 14 -4 45 -13 70 -20 25 -7
55 -16 68 -21 13 -5 28 -7 33 -4 5 4 9 1 9 -6 0 -7 3 -10 6 -7 3 3 34 -5 70
-18 35 -12 64 -21 64 -19 0 1 37 -10 83 -27 45 -16 87 -31 92 -32 6 -1 16 -5
23 -9 7 -5 24 -11 39 -13 15 -3 31 -8 37 -12 6 -4 13 -7 16 -8 3 0 12 -3 20
-6 8 -4 24 -9 35 -14 11 -4 22 -8 25 -8 3 -1 11 -5 18 -9 6 -5 12 -6 12 -3 0
3 12 -1 27 -9 15 -8 30 -12 35 -9 4 3 8 0 8 -5 0 -6 7 -11 15 -11 8 0 23 -4
33 -9 38 -20 98 -44 110 -44 6 0 12 -4 12 -8 0 -7 49 -24 63 -21 4 1 7 -3 7
-8 0 -6 6 -10 14 -10 8 0 31 -9 53 -19 71 -36 169 -80 183 -83 8 -2 17 -6 20
-9 8 -10 93 -49 107 -49 7 0 13 -4 13 -9 0 -10 39 -27 53 -23 4 1 7 -3 7 -10
0 -6 3 -9 6 -5 4 3 13 -1 21 -9 8 -8 19 -12 24 -9 5 4 9 2 9 -4 0 -10 38 -27
53 -23 4 1 7 -2 7 -6 0 -5 29 -23 65 -41 36 -18 68 -37 71 -42 3 -5 10 -7 15
-4 5 4 9 2 9 -3 0 -5 8 -12 18 -15 17 -6 63 -32 155 -88 26 -16 52 -29 57 -29
6 0 10 -5 10 -11 0 -5 4 -8 9 -5 5 4 11 3 13 -1 5 -12 113 -83 125 -83 6 0 13
-4 15 -9 2 -5 10 -11 18 -13 8 -2 21 -9 30 -17 22 -21 119 -82 125 -79 2 2 12
-7 20 -20 9 -12 20 -20 25 -17 5 3 13 -3 19 -12 6 -10 11 -14 11 -10 0 4 12
-4 27 -18 15 -14 33 -25 40 -25 7 0 13 -4 13 -10 0 -5 7 -10 16 -10 8 0 12 -4
9 -10 -3 -5 0 -10 7 -10 12 0 46 -24 91 -64 9 -9 22 -16 29 -16 7 0 23 -12 36
-27 13 -16 20 -21 17 -13 -4 8 4 3 17 -12 14 -16 30 -28 37 -28 6 0 11 -3 11
-7 0 -5 23 -24 50 -43 27 -19 50 -38 50 -42 0 -3 16 -16 35 -28 19 -11 49 -35
68 -53 18 -18 48 -43 66 -57 43 -33 92 -76 147 -127 24 -23 44 -40 44 -38 0 7
67 -58 304 -290 131 -129 236 -235 233 -235 -3 0 19 -25 49 -55 30 -30 53 -55
51 -55 -3 0 15 -21 40 -47 63 -68 79 -87 80 -96 1 -5 15 -20 32 -34 17 -14 31
-30 31 -34 0 -5 8 -17 18 -27 9 -10 31 -35 47 -56 17 -21 37 -46 45 -54 8 -9
15 -18 15 -21 0 -5 34 -47 61 -75 6 -6 11 -15 11 -19 1 -5 10 -20 22 -33 11
-13 20 -25 19 -27 -2 -2 26 -38 50 -62 6 -8 12 -18 12 -24 0 -5 8 -16 19 -23
10 -7 18 -17 18 -22 0 -5 13 -22 29 -39 16 -17 22 -27 14 -23 -8 4 -6 0 4 -8
11 -9 16 -16 11 -16 -4 0 3 -10 16 -23 13 -13 25 -30 27 -38 2 -7 11 -21 20
-29 9 -9 18 -21 20 -28 1 -8 11 -22 21 -33 10 -11 24 -32 32 -47 8 -15 22 -36
32 -46 9 -11 17 -25 17 -32 0 -7 3 -14 8 -16 7 -3 66 -94 89 -140 8 -16 19
-28 24 -28 6 0 8 -4 5 -8 -3 -5 2 -18 12 -28 9 -11 18 -26 20 -34 2 -8 7 -17
10 -20 4 -3 22 -34 41 -70 19 -36 37 -67 41 -70 3 -3 28 -48 54 -100 27 -52
53 -98 58 -101 5 -3 9 -8 7 -10 -4 -6 34 -83 44 -90 5 -3 8 -10 8 -15 -2 -19
11 -44 21 -44 6 0 9 -3 6 -6 -4 -3 7 -30 23 -61 16 -30 29 -61 29 -69 0 -8 5
-14 11 -14 5 0 7 -4 4 -10 -3 -5 -1 -10 5 -10 6 0 8 -4 5 -10 -3 -5 -1 -10 5
-10 6 0 8 -5 5 -11 -4 -5 0 -18 8 -27 9 -9 19 -29 22 -44 4 -16 12 -28 18 -28
6 0 7 -3 4 -7 -4 -3 0 -17 8 -30 9 -13 13 -23 9 -23 -3 0 0 -10 8 -22 8 -13
22 -45 32 -73 11 -27 23 -55 28 -61 5 -7 11 -21 13 -33 2 -11 10 -35 18 -53
20 -46 48 -121 125 -338 3 -8 4 -18 4 -22 -1 -5 2 -8 6 -8 5 0 9 -6 9 -12 0
-12 46 -163 60 -198 3 -8 7 -19 8 -25 2 -8 20 -71 31 -110 25 -84 47 -166 51
-190 3 -16 9 -35 14 -41 5 -6 6 -14 3 -17 -3 -3 -2 -12 2 -19 4 -7 9 -19 11
-28 5 -32 15 -76 20 -90 3 -8 7 -19 7 -25 4 -26 23 -114 26 -117 1 -2 3 -12 5
-23 2 -11 7 -36 11 -55 4 -19 7 -43 8 -52 0 -10 4 -18 9 -18 4 0 6 -3 3 -8 -2
-4 0 -27 5 -52 4 -25 13 -72 19 -105 5 -33 12 -71 14 -85 12 -64 18 -107 22
-135 4 -40 11 -92 18 -135 12 -79 34 -297 41 -405 2 -33 7 -109 11 -170 9
-132 9 -786 0 -938 -7 -130 -14 -213 -31 -367 -4 -30 -8 -73 -10 -95 -2 -22
-7 -62 -11 -90 -3 -27 -7 -59 -8 -70 -3 -23 -15 -106 -23 -150 -3 -16 -6 -39
-8 -50 -3 -20 -14 -83 -20 -114 -1 -9 -6 -36 -10 -61 -4 -25 -9 -54 -12 -65
-2 -11 -6 -29 -8 -40 -2 -11 -6 -31 -9 -45 -3 -14 -8 -36 -11 -50 -3 -14 -8
-36 -11 -50 -3 -14 -7 -34 -9 -45 -6 -30 -11 -54 -30 -125 -9 -36 -18 -72 -20
-80 -2 -8 -13 -51 -24 -95 -12 -44 -24 -88 -26 -97 -3 -10 -7 -26 -9 -35 -2
-10 -11 -38 -19 -63 -8 -25 -24 -79 -37 -120 -12 -41 -25 -82 -28 -90 -3 -8
-6 -17 -7 -20 0 -3 -9 -30 -20 -60 -10 -30 -17 -56 -16 -58 1 -1 -6 -16 -14
-32 -9 -17 -13 -30 -10 -30 3 0 -2 -11 -11 -25 -9 -14 -14 -25 -11 -25 4 0 -2
-20 -13 -44 -10 -24 -16 -47 -13 -50 4 -3 1 -6 -5 -6 -7 0 -12 -8 -12 -17 0
-10 -7 -31 -15 -47 -8 -15 -12 -32 -9 -37 3 -5 0 -9 -5 -9 -6 0 -11 -4 -11 -9
0 -5 -5 -22 -12 -38 -6 -15 -12 -30 -12 -33 -1 -3 -5 -11 -9 -17 -5 -7 -5 -13
0 -13 4 0 3 -4 -3 -8 -10 -7 -47 -96 -44 -108 1 -4 -3 -10 -8 -13 -6 -3 -12
-15 -14 -26 -1 -11 -9 -26 -16 -33 -7 -8 -10 -17 -7 -22 3 -5 1 -10 -5 -12 -5
-1 -11 -13 -13 -25 -1 -11 -8 -28 -15 -35 -6 -8 -9 -18 -5 -21 3 -4 2 -7 -3
-7 -11 0 -41 -68 -37 -82 2 -4 -1 -8 -6 -8 -5 0 -12 -11 -15 -25 -4 -14 -10
-25 -15 -25 -5 0 -15 -15 -22 -32 -7 -18 -20 -39 -29 -46 -8 -8 -9 -10 -1 -7
19 10 -26 -58 -67 -101 -7 -7 -14 -17 -15 -21 -3 -11 -18 -5 -39 14 -10 9 -18
13 -18 10 0 -4 -13 7 -30 25 -16 17 -30 28 -30 23 0 -4 -9 3 -20 16 -10 13
-19 20 -20 15 0 -5 -9 3 -21 18 -11 14 -26 26 -32 26 -7 0 -18 9 -25 20 -7 12
-17 18 -21 15 -5 -2 -11 1 -14 8 -3 7 -31 33 -63 57 -32 25 -66 52 -75 60 -10
8 -31 26 -49 40 -17 14 -38 31 -45 38 -8 7 -15 11 -15 8 0 -4 -14 8 -31 26
-17 18 -27 26 -23 18 4 -8 -7 0 -25 19 -17 19 -31 31 -31 27 0 -5 -9 2 -20 15
-10 13 -19 20 -20 14 0 -5 -7 1 -16 13 -8 12 -22 22 -30 22 -8 0 -14 6 -14 13
0 7 -9 18 -20 25 -17 10 -20 10 -21 -5 0 -10 -3 -27 -5 -38 -3 -11 -6 -36 -9
-55 -2 -19 -6 -46 -9 -60 -3 -14 -8 -41 -10 -60 -3 -19 -8 -51 -11 -70 -6 -33
-12 -80 -20 -141 -1 -15 -6 -39 -9 -55 -4 -16 -8 -42 -10 -59 -3 -16 -7 -43
-10 -60 -3 -16 -8 -54 -11 -84 -3 -29 -7 -57 -10 -61 -3 -4 -7 -27 -9 -51 -3
-24 -7 -57 -10 -74 -3 -16 -8 -48 -10 -70 -3 -22 -8 -51 -11 -65 -3 -14 -8
-41 -10 -60 -2 -19 -6 -46 -9 -60 -5 -28 -15 -89 -21 -140 -3 -19 -7 -46 -10
-60 -3 -14 -7 -45 -10 -70 -3 -25 -8 -56 -11 -68 -3 -13 -7 -43 -10 -65 -3
-23 -8 -53 -10 -67 -2 -14 -7 -43 -10 -65 -3 -22 -8 -51 -10 -65 -7 -38 -14
-81 -19 -120 -2 -19 -6 -44 -9 -55 -2 -11 -7 -45 -11 -75 -4 -30 -9 -64 -11
-75 -2 -11 -7 -38 -10 -60 -3 -22 -8 -51 -10 -65 -2 -14 -6 -42 -9 -64 -2 -21
-7 -46 -9 -55 -3 -9 -8 -38 -11 -66 -3 -27 -7 -61 -10 -75 -3 -14 -7 -38 -9
-55 -3 -16 -7 -46 -11 -65 -3 -19 -8 -48 -10 -65 -6 -50 -16 -119 -22 -145 -2
-14 -6 -38 -8 -55 -2 -16 -6 -43 -8 -60 -3 -16 -8 -52 -12 -80 -4 -27 -9 -57
-11 -67 -2 -14 0 -15 24 -2 15 8 33 14 40 14 6 0 12 4 12 10 0 5 3 9 8 8 13
-4 102 26 102 34 0 4 8 8 18 8 10 0 22 3 26 8 4 4 11 7 14 8 4 0 14 3 22 7 8
3 38 13 65 23 28 10 53 23 57 28 4 6 8 7 8 2 0 -5 7 -2 17 5 9 8 17 13 17 11
1 -4 26 4 121 41 44 18 83 31 88 29 4 -1 7 3 7 8 0 5 3 9 8 9 4 -1 10 0 15 1
4 1 10 3 15 4 14 3 107 39 117 46 6 3 36 15 68 25 31 11 57 23 57 28 0 4 4 6
8 3 4 -2 21 1 37 9 26 11 59 24 75 30 3 1 19 7 35 14 17 7 35 14 40 15 6 1 17
6 25 11 8 5 26 11 39 13 13 2 34 10 47 18 12 9 27 16 31 16 4 0 24 7 43 15 19
9 40 17 45 17 6 1 26 8 45 17 19 8 54 21 78 29 23 7 42 16 42 19 0 4 9 7 20 8
11 1 35 9 52 17 17 9 37 16 45 16 7 0 13 5 13 11 0 5 4 8 8 5 4 -2 38 8 75 24
37 15 67 26 67 24 0 -3 10 2 23 11 13 8 27 12 30 8 4 -3 7 -1 7 5 0 7 3 11 8
10 15 -4 92 26 92 35 0 6 3 7 6 4 4 -3 15 -2 26 4 11 6 29 12 41 15 12 2 23 8
25 14 2 6 8 8 13 5 4 -3 27 3 51 15 23 11 48 20 55 20 7 0 13 4 13 8 0 4 10 8
22 9 11 1 25 8 29 15 5 7 9 10 9 6 0 -8 90 23 122 42 10 6 25 10 33 10 8 0 15
4 15 10 0 5 7 7 15 4 8 -4 15 -1 15 5 0 7 6 11 13 10 6 -1 29 5 49 14 21 10
43 17 50 17 8 0 22 6 33 14 11 7 35 17 53 21 17 3 32 10 32 14 0 4 6 8 13 8
16 1 126 42 152 56 11 6 25 10 30 9 6 -1 3 3 -6 10 -9 7 -33 27 -54 43 -21 17
-44 36 -51 43 -7 6 -16 12 -19 12 -4 0 -16 11 -27 25 -11 14 -25 25 -31 25 -7
1 -32 21 -57 45 -25 25 -50 45 -55 45 -6 0 -16 9 -23 20 -7 12 -17 18 -22 15
-5 -3 -14 4 -20 16 -7 11 -14 19 -16 16 -3 -3 -24 13 -47 34 -23 21 -44 39
-48 39 -3 0 -30 22 -60 50 -29 27 -57 50 -62 50 -13 0 -67 53 -67 66 0 7 7 19
15 28 8 8 19 25 25 38 6 13 22 43 36 67 15 24 27 49 28 55 6 29 20 63 34 79 8
9 11 17 6 17 -5 0 -4 4 3 8 6 4 13 14 15 22 2 8 9 21 16 28 7 8 10 18 7 23 -4
5 -2 9 2 9 9 0 37 59 34 73 0 4 3 7 8 7 8 0 24 37 22 53 -1 4 4 7 10 7 5 0 7
5 4 10 -3 6 -3 10 2 10 11 0 34 51 27 61 -3 5 -1 9 4 9 5 0 13 10 17 23 4 12
8 24 9 27 1 3 10 20 19 38 10 17 15 32 12 32 -4 0 1 7 9 16 9 8 16 22 16 30 0
8 7 26 16 39 9 14 13 25 9 25 -5 0 0 9 9 19 10 11 15 24 12 30 -3 5 -2 11 3
13 5 1 11 12 13 23 1 11 9 26 16 33 7 8 10 17 7 22 -3 5 -1 11 5 15 6 4 8 11
5 16 -4 5 -2 9 3 9 9 0 27 47 24 63 -1 4 3 7 9 7 5 0 8 4 4 9 -3 5 -1 12 5 16
6 4 8 10 5 15 -3 5 -1 11 5 15 6 4 8 11 5 16 -4 5 -1 9 4 9 6 0 11 5 11 11 0
6 16 55 36 108 53 139 145 413 147 434 1 9 5 17 9 17 4 0 8 7 8 14 0 8 12 52
26 96 14 45 26 90 27 101 1 10 5 19 9 19 4 0 5 9 3 20 -2 11 1 20 7 20 6 0 9
2 6 5 -3 3 8 52 24 108 16 56 31 117 34 136 2 18 9 42 15 53 6 11 8 22 5 25
-3 4 -1 12 5 20 6 7 9 13 6 13 -3 0 -1 15 4 33 9 32 20 80 23 107 2 8 5 24 9
35 3 11 9 36 12 55 3 19 11 55 16 80 11 48 15 64 23 120 3 19 8 46 11 60 3 14
7 39 10 55 3 17 7 41 10 55 3 14 7 41 9 60 6 43 16 106 22 140 5 23 9 60 19
150 2 19 6 54 9 78 12 87 25 211 31 287 1 22 5 72 9 110 28 315 29 1094 1
1395 -3 30 -8 80 -11 110 -3 30 -7 80 -9 110 -2 31 -6 76 -10 100 -4 25 -9 63
-11 85 -2 22 -5 56 -8 75 -3 19 -7 53 -10 75 -14 100 -18 132 -22 155 -2 14
-7 43 -10 65 -6 45 -10 69 -19 105 -3 14 -8 41 -11 60 -3 19 -7 44 -9 55 -2
11 -6 31 -8 45 -3 14 -8 41 -12 60 -4 19 -9 44 -11 55 -2 11 -6 36 -10 55 -3
19 -8 42 -11 50 -3 8 -7 24 -9 35 -3 24 -12 60 -14 60 -1 0 -3 9 -5 20 -2 11
-6 31 -9 45 -6 26 -20 91 -21 100 0 3 -3 10 -7 16 -4 6 -10 26 -13 45 -3 19
-11 52 -17 74 -14 47 -12 41 -22 85 -5 19 -11 40 -15 45 -3 6 -6 12 -6 15 -3
26 -18 87 -23 95 -4 5 -8 19 -9 30 -2 11 -6 27 -10 35 -10 23 -10 23 -18 58
-4 18 -11 35 -16 38 -4 2 -6 11 -2 19 3 8 1 15 -4 15 -5 0 -9 10 -10 22 -2 20
-6 33 -29 93 -4 11 -8 22 -8 25 -10 43 -32 100 -38 100 -4 0 -7 3 -6 8 2 11
-20 85 -39 129 -9 21 -18 45 -19 53 -2 8 -7 23 -12 35 -21 46 -52 131 -52 143
0 6 -4 12 -8 12 -5 0 -15 23 -22 50 -7 28 -17 50 -22 50 -4 0 -8 9 -8 19 0 11
-5 23 -10 26 -6 4 -8 11 -5 16 4 5 1 9 -6 9 -7 0 -9 3 -6 7 4 3 2 12 -4 20 -6
7 -8 13 -4 13 4 0 1 7 -6 16 -7 9 -14 21 -15 28 -4 23 -34 85 -44 91 -6 4 -8
11 -5 16 4 5 -1 16 -9 25 -9 9 -14 19 -11 24 3 5 1 11 -5 15 -5 3 -10 13 -10
21 0 9 -12 36 -27 62 -16 26 -28 49 -28 52 -2 16 -51 110 -58 110 -5 0 -5 5
-2 10 3 6 1 10 -5 10 -6 0 -8 5 -5 10 3 6 2 10 -4 10 -6 0 -8 6 -5 14 3 7 -2
16 -11 20 -9 3 -14 10 -11 15 4 5 -1 17 -10 25 -8 9 -12 16 -8 16 4 0 -1 9
-11 20 -10 11 -15 20 -10 20 4 0 1 7 -6 16 -7 9 -14 23 -16 32 -1 9 -10 22
-19 29 -10 7 -15 13 -11 13 8 0 -39 87 -62 114 -9 11 -10 16 -3 12 7 -4 -1 13
-18 37 -16 25 -30 49 -30 55 0 6 -3 12 -7 14 -5 2 -21 29 -38 61 -16 31 -33
57 -38 57 -4 0 -5 5 -2 10 3 6 -1 13 -9 16 -9 3 -13 10 -10 15 3 5 -1 16 -8
24 -28 31 -39 45 -34 45 5 0 -55 96 -73 116 -5 7 -7 15 -4 18 4 3 1 6 -5 6 -7
0 -12 7 -12 15 0 8 -4 15 -9 15 -5 0 -14 14 -21 30 -7 17 -16 30 -21 30 -5 0
-9 7 -9 15 0 9 -12 28 -27 42 -16 15 -21 23 -13 19 8 -4 6 0 -4 8 -11 9 -16
16 -12 16 7 0 -6 18 -54 77 -6 7 -10 16 -10 21 0 5 -9 17 -20 27 -11 10 -20
22 -20 26 0 9 -22 38 -52 71 -10 10 -15 18 -10 18 4 0 -2 7 -12 15 -11 8 -17
15 -13 15 4 0 -11 24 -33 53 -44 58 -54 71 -107 142 -21 27 -48 58 -61 68 -12
10 -20 23 -17 27 3 5 -4 14 -15 20 -11 6 -20 15 -20 21 0 5 -10 20 -22 33 -25
25 -60 68 -95 113 -12 15 -31 39 -43 53 -11 14 -36 42 -53 63 -32 38 -74 85
-134 150 -18 19 -29 38 -25 42 4 5 2 5 -5 1 -7 -4 -17 2 -23 14 -6 12 -35 45
-63 74 -88 89 -207 216 -202 216 3 0 -9 14 -27 30 -17 17 -35 30 -40 30 -5 0
-6 5 -3 10 3 6 2 10 -4 10 -6 0 -43 33 -82 74 -40 41 -76 73 -80 70 -4 -2 -11
5 -14 17 -4 11 -9 19 -11 16 -4 -4 -78 63 -161 146 -24 23 -43 38 -43 34 0 -4
-14 8 -31 28 -17 19 -37 35 -45 35 -8 0 -14 7 -14 15 0 8 -4 15 -10 15 -5 0
-21 11 -35 25 -14 14 -25 24 -25 21 0 -3 -13 7 -29 22 -60 57 -116 102 -128
102 -7 0 -13 7 -13 15 0 8 -7 15 -15 15 -8 0 -15 5 -15 10 0 6 -4 10 -9 10 -5
0 -26 16 -47 35 -20 19 -40 33 -42 30 -2 -2 -15 8 -28 22 -13 14 -24 22 -24
17 0 -5 -7 2 -16 14 -8 12 -20 20 -25 17 -5 -4 -9 -2 -9 3 0 5 -21 24 -47 42
-27 19 -49 38 -51 42 -2 4 -10 8 -18 8 -8 0 -14 5 -14 10 0 6 -7 10 -15 10 -8
0 -15 5 -15 10 0 6 -4 10 -10 10 -5 0 -19 8 -29 18 -24 22 -69 53 -76 52 -3 0
-18 11 -33 25 -15 14 -30 25 -34 25 -5 0 -17 9 -28 20 -12 12 -25 18 -29 15
-5 -2 -12 2 -15 11 -4 9 -9 14 -12 11 -4 -3 -15 4 -25 16 -10 12 -18 18 -19
14 0 -4 -10 1 -22 12 -11 11 -24 18 -28 16 -5 -3 -11 2 -14 11 -3 8 -10 13
-15 10 -5 -3 -11 1 -15 9 -3 8 -15 15 -26 15 -12 0 -18 5 -15 10 5 9 -10 15
-18 8 -1 -2 -14 7 -27 20 -14 13 -41 31 -60 40 -19 9 -46 27 -60 39 -14 13
-31 21 -37 19 -7 -3 -16 1 -20 8 -5 8 -33 26 -63 42 -30 15 -61 34 -68 41 -12
12 -18 14 -37 13 -3 0 -15 9 -27 20 -20 19 -33 24 -50 21 -5 0 -8 3 -8 7 0 10
-50 37 -62 34 -5 -1 -8 3 -8 8 0 6 -9 10 -20 10 -11 0 -20 4 -20 8 0 9 -131
77 -142 74 -5 -1 -8 3 -8 9 0 5 -4 7 -10 4 -5 -3 -10 -2 -10 3 0 9 -58 35 -69
31 -2 0 -7 4 -10 9 -6 9 -101 55 -111 54 -3 0 -13 7 -22 15 -10 9 -18 14 -18
10 0 -3 -20 5 -46 19 -25 13 -50 24 -55 24 -6 0 -17 7 -26 15 -8 9 -20 14 -27
12 -6 -2 -17 2 -24 10 -8 7 -18 11 -23 8 -5 -4 -9 -1 -9 4 0 6 -9 11 -20 11
-11 0 -20 5 -20 11 0 6 -7 9 -15 5 -8 -3 -15 -1 -15 5 0 6 -4 8 -9 5 -5 -4
-11 -2 -13 4 -1 5 -12 11 -23 13 -11 2 -47 16 -80 32 -33 15 -64 28 -70 30 -5
1 -21 7 -35 12 -14 6 -52 22 -85 36 -33 13 -78 30 -100 37 -22 7 -45 17 -52
22 -7 5 -17 7 -23 3 -5 -3 -10 -2 -10 4 0 9 -56 27 -72 23 -5 -1 -8 3 -8 9 0
6 -7 9 -15 5 -8 -3 -15 -1 -15 5 0 6 -5 7 -11 3 -6 -3 -14 -2 -18 4 -4 7 -16
13 -26 15 -11 2 -27 7 -35 10 -41 16 -177 59 -192 60 -10 1 -18 6 -18 11 0 5
-3 7 -6 3 -4 -3 -18 0 -33 7 -14 7 -33 12 -41 11 -8 -1 -20 3 -26 7 -7 5 -23
11 -35 14 -27 6 -29 6 -89 23 -25 8 -49 14 -55 16 -5 1 -17 5 -25 8 -8 4 -26
9 -40 11 -14 3 -70 17 -125 32 -119 31 -131 34 -170 40 -16 3 -41 9 -55 14
-14 5 -41 11 -60 14 -19 3 -46 8 -60 12 -14 3 -35 7 -47 9 -11 2 -30 6 -41 9
-11 4 -33 9 -48 11 -16 2 -63 11 -104 19 -41 8 -91 16 -110 19 -19 3 -42 7
-50 10 -8 3 -37 9 -65 12 -70 9 -105 14 -140 20 -16 2 -48 7 -70 9 -22 3 -60
8 -85 12 -25 3 -58 8 -75 9 -16 2 -57 6 -90 10 -135 14 -227 23 -330 30 -38 3
-101 8 -140 11 -73 6 -952 14 -957 8z"/>
<path d="M8755 20540 c-4 -6 -10 -8 -15 -5 -5 3 -25 -4 -44 -15 -20 -11 -36
-17 -36 -15 0 3 -13 -1 -30 -10 -16 -8 -32 -15 -35 -15 -3 0 -22 -7 -43 -16
-20 -10 -41 -16 -46 -15 -4 1 -19 -5 -32 -14 -13 -8 -24 -13 -24 -10 0 3 -15
-2 -32 -12 -18 -9 -37 -17 -43 -18 -5 -1 -23 -6 -38 -13 -16 -7 -35 -12 -43
-12 -8 0 -14 -5 -14 -11 0 -5 -4 -8 -8 -5 -5 3 -20 -1 -34 -8 -14 -8 -43 -20
-65 -26 -21 -7 -54 -20 -73 -28 -19 -9 -39 -17 -45 -18 -5 -1 -28 -10 -50 -20
-22 -10 -49 -19 -60 -21 -10 -2 -22 -8 -26 -14 -3 -6 -9 -10 -13 -9 -15 4 -66
-12 -66 -21 0 -6 -4 -8 -8 -5 -5 3 -20 -1 -35 -9 -14 -7 -28 -11 -31 -7 -3 3
-6 1 -6 -4 0 -5 -10 -10 -22 -11 -11 -1 -24 -6 -27 -10 -3 -4 -13 -9 -21 -11
-8 -1 -24 -7 -35 -11 -23 -11 -58 -24 -65 -25 -3 -1 -30 -11 -60 -23 -216 -85
-265 -103 -277 -103 -7 0 -13 -5 -13 -11 0 -5 -4 -8 -8 -5 -4 2 -28 -5 -52
-16 -25 -12 -51 -20 -57 -19 -7 1 -13 -2 -13 -7 0 -5 -6 -9 -12 -9 -20 -1
-113 -37 -116 -46 -2 -4 -7 -5 -12 -2 -7 4 -44 -10 -90 -34 -9 -5 -30 -12 -48
-15 -17 -4 -34 -12 -37 -17 -4 -5 -14 -9 -23 -9 -9 -1 -35 -9 -57 -20 -22 -11
-48 -19 -57 -20 -9 0 -20 -5 -23 -10 -4 -6 -11 -8 -16 -5 -5 4 -9 1 -9 -5 0
-6 -4 -8 -10 -5 -5 3 -10 1 -10 -5 0 -6 -4 -9 -9 -5 -5 3 -12 1 -16 -5 -4 -6
-11 -8 -16 -5 -5 4 -9 1 -9 -5 0 -6 -4 -8 -10 -5 -5 3 -26 -3 -47 -13 -21 -10
-58 -25 -83 -32 -25 -8 -47 -17 -50 -20 -3 -3 -32 -15 -65 -27 -101 -37 -130
-48 -135 -53 -3 -3 -13 -6 -22 -8 -10 -1 -34 -10 -55 -19 -21 -9 -47 -18 -58
-20 -11 -2 -24 -8 -29 -13 -6 -6 -18 -10 -28 -10 -10 0 -18 -4 -18 -10 0 -5
-7 -7 -15 -4 -22 9 -19 -20 5 -41 11 -10 20 -16 20 -13 0 3 21 -14 47 -38 26
-23 49 -41 51 -39 2 1 19 -12 38 -31 19 -19 34 -31 34 -27 0 4 7 -3 16 -15 8
-12 20 -20 25 -17 5 4 9 2 9 -3 0 -4 24 -27 53 -50 59 -47 102 -82 120 -97 7
-6 37 -30 67 -55 30 -25 57 -48 58 -52 2 -5 9 -8 15 -8 7 0 18 -9 25 -20 7
-11 17 -20 23 -20 7 0 19 -8 28 -17 34 -37 84 -77 76 -63 -4 8 7 -1 24 -20 18
-19 29 -28 25 -20 -4 8 7 0 24 -19 32 -33 40 -51 23 -51 -8 0 -24 -37 -22 -52
1 -5 -3 -8 -9 -8 -6 0 -9 -3 -8 -7 1 -5 -7 -26 -19 -48 -11 -22 -26 -58 -33
-80 -7 -22 -15 -44 -19 -50 -3 -5 -7 -18 -8 -28 -2 -10 -12 -35 -23 -56 -10
-21 -16 -41 -13 -45 4 -3 0 -6 -7 -6 -7 0 -10 -3 -7 -7 4 -3 0 -15 -10 -25 -9
-10 -13 -18 -8 -18 4 0 0 -11 -9 -25 -9 -14 -14 -25 -11 -25 4 0 -3 -17 -13
-37 -24 -45 -45 -100 -42 -109 1 -4 -3 -10 -9 -14 -6 -3 -13 -17 -16 -29 -2
-13 -9 -29 -15 -37 -7 -7 -9 -18 -5 -24 3 -5 1 -10 -4 -10 -6 0 -11 -8 -11
-18 0 -10 -4 -22 -10 -28 -5 -5 -11 -18 -13 -29 -2 -11 -9 -30 -15 -42 -7 -13
-10 -23 -6 -23 3 0 1 -6 -5 -13 -6 -8 -8 -17 -4 -20 3 -4 2 -7 -4 -7 -9 0 -27
-55 -20 -63 1 -2 -6 -15 -16 -31 -10 -15 -16 -30 -14 -33 3 -2 -1 -16 -8 -30
-8 -15 -12 -30 -9 -35 3 -4 0 -8 -5 -8 -6 0 -11 -8 -11 -18 0 -10 -3 -22 -7
-26 -5 -4 -8 -11 -9 -14 0 -4 -6 -27 -13 -52 -7 -25 -13 -46 -12 -47 0 -2 -6
-18 -15 -38 -8 -19 -11 -35 -8 -35 4 0 2 -6 -3 -12 -6 -7 -14 -26 -18 -43 -12
-44 -12 -45 -15 -50 -1 -3 -3 -8 -4 -12 -1 -5 -5 -14 -9 -20 -5 -7 -6 -17 -2
-22 3 -5 1 -12 -4 -15 -5 -3 -12 -23 -16 -43 -5 -21 -10 -44 -12 -50 -1 -7 -5
-21 -7 -30 -3 -10 -5 -18 -6 -18 -2 0 -5 -14 -14 -53 -3 -12 -7 -26 -10 -30
-3 -5 -8 -22 -11 -38 -3 -16 -16 -71 -29 -123 -14 -52 -23 -98 -20 -103 3 -4
1 -8 -5 -8 -5 0 -8 -8 -6 -17 1 -10 -2 -23 -7 -29 -5 -7 -8 -16 -7 -20 1 -5 0
-11 -1 -14 -4 -11 -10 -47 -13 -72 -1 -16 -5 -28 -9 -28 -5 0 -7 -3 -6 -7 1
-5 -2 -30 -7 -58 -5 -27 -10 -54 -10 -60 -1 -5 -4 -19 -8 -30 -3 -11 -9 -40
-13 -65 -10 -69 -12 -83 -18 -110 -6 -25 -14 -78 -21 -130 -2 -17 -6 -43 -10
-58 -3 -15 -8 -47 -11 -72 -10 -83 -13 -105 -18 -140 -8 -49 -16 -117 -20
-170 -2 -25 -7 -63 -10 -85 -8 -61 -20 -212 -31 -400 -29 -489 -13 -1073 40
-1540 2 -22 7 -60 9 -85 3 -25 8 -65 11 -90 4 -25 9 -58 11 -75 1 -16 6 -46 9
-65 3 -19 8 -51 10 -70 2 -19 6 -51 10 -70 12 -63 15 -85 18 -115 2 -17 6 -36
11 -43 4 -6 5 -12 3 -12 -3 0 -1 -17 4 -37 5 -21 11 -58 15 -83 3 -25 10 -52
15 -61 4 -9 6 -18 4 -21 -3 -3 1 -25 9 -51 7 -25 12 -48 9 -51 -3 -2 -1 -10 3
-17 4 -7 9 -23 10 -34 1 -12 8 -41 14 -66 7 -24 14 -53 16 -64 3 -17 10 -48
20 -87 1 -5 2 -9 4 -10 1 -2 3 -12 5 -23 2 -11 6 -31 10 -45 4 -14 8 -33 8
-42 1 -10 6 -18 11 -18 5 0 7 -3 4 -6 -4 -3 3 -36 14 -72 11 -37 21 -74 22
-82 1 -9 5 -21 10 -28 4 -6 5 -12 1 -12 -3 0 1 -13 9 -29 9 -16 12 -31 9 -34
-3 -4 -1 -13 5 -20 7 -8 9 -17 5 -20 -3 -4 -1 -7 6 -7 7 0 9 -4 6 -10 -3 -5
-3 -16 2 -22 4 -7 9 -19 10 -25 5 -23 10 -38 17 -55 4 -9 9 -22 10 -30 8 -40
20 -75 30 -87 6 -8 10 -16 9 -18 -2 -1 -3 -4 -2 -5 0 -2 2 -11 4 -21 2 -10 7
-26 11 -35 4 -9 8 -20 9 -24 2 -5 3 -9 4 -10 2 -2 5 -14 7 -28 2 -13 8 -27 12
-30 7 -5 14 -27 15 -47 0 -7 4 -13 9 -13 4 0 7 -3 6 -7 -3 -11 23 -86 35 -100
5 -7 6 -13 2 -13 -4 0 -2 -7 5 -15 7 -8 9 -15 5 -15 -4 0 0 -11 9 -25 9 -14
14 -25 10 -25 -4 0 -1 -6 5 -14 7 -8 14 -24 16 -37 2 -12 13 -40 24 -62 11
-22 18 -44 15 -49 -3 -4 0 -8 5 -8 6 0 11 -9 11 -20 0 -11 5 -20 10 -20 6 0 9
-3 9 -7 -1 -5 0 -11 1 -15 1 -5 3 -11 4 -15 1 -5 11 -26 21 -48 10 -22 17 -43
17 -47 -1 -5 2 -8 6 -8 5 0 9 -6 9 -14 0 -7 15 -44 33 -82 19 -38 33 -72 32
-76 -1 -5 3 -8 9 -8 5 0 7 -5 4 -10 -3 -6 3 -22 14 -36 11 -15 18 -30 15 -35
-3 -5 0 -9 5 -9 6 0 11 -3 10 -7 -2 -16 14 -53 22 -53 5 0 8 -3 7 -7 -3 -11
34 -87 46 -95 6 -4 7 -8 3 -8 -9 0 44 -103 56 -108 4 -2 7 -12 7 -22 0 -10 3
-20 8 -22 4 -1 29 -47 57 -100 27 -54 53 -98 58 -98 4 0 6 -3 4 -7 -2 -5 4
-21 14 -38 10 -16 28 -49 40 -72 12 -24 25 -43 31 -43 5 0 6 -4 3 -10 -3 -5
-1 -10 6 -10 7 0 9 -3 6 -7 -4 -3 5 -21 19 -40 14 -18 22 -33 19 -33 -3 0 -1
-6 5 -13 13 -15 71 -108 100 -160 11 -20 25 -37 31 -37 6 0 8 -4 5 -8 -3 -5 3
-18 12 -28 10 -10 20 -23 22 -29 10 -25 36 -65 43 -65 4 0 7 -6 7 -14 0 -7 10
-24 22 -37 13 -14 24 -29 25 -34 2 -6 10 -18 18 -27 8 -10 12 -18 8 -18 -4 0
2 -7 13 -15 10 -8 15 -15 9 -15 -7 0 -7 -3 0 -8 17 -12 75 -90 75 -100 0 -6
13 -24 29 -41 15 -16 27 -32 24 -34 -2 -3 11 -21 29 -40 18 -20 34 -41 36 -48
2 -7 15 -24 28 -38 14 -14 33 -38 42 -53 9 -15 20 -28 24 -28 4 0 8 -5 8 -12
0 -6 15 -25 33 -41 17 -17 25 -27 17 -23 -8 4 -3 -4 12 -17 15 -14 25 -27 22
-30 -3 -3 6 -14 20 -25 14 -10 23 -22 19 -25 -3 -4 2 -9 11 -13 9 -3 14 -10
11 -14 -3 -5 4 -11 15 -15 11 -3 19 -9 18 -13 -3 -15 15 -42 28 -42 8 0 14 -6
14 -12 0 -7 18 -32 39 -55 21 -23 36 -44 33 -47 -3 -3 3 -6 13 -6 10 0 15 -3
12 -7 -4 -3 7 -19 23 -35 16 -15 26 -28 22 -28 -4 -1 4 -7 18 -15 14 -8 21
-14 16 -15 -5 0 3 -11 18 -25 14 -13 26 -27 26 -31 0 -4 29 -36 64 -70 35 -34
62 -65 58 -68 -3 -3 2 -6 11 -6 10 0 16 -4 15 -9 -2 -5 34 -45 79 -90 46 -45
81 -81 78 -81 -2 0 6 -10 18 -23 12 -13 24 -23 27 -22 3 1 13 -6 23 -17 9 -10
14 -18 11 -18 -4 0 4 -9 18 -19 13 -11 52 -48 86 -82 34 -34 62 -58 62 -53 0
5 6 -2 13 -15 6 -13 16 -24 22 -25 5 0 32 -23 59 -51 27 -27 45 -44 41 -36 -5
9 -4 12 3 7 7 -4 12 -14 12 -22 0 -8 3 -14 8 -14 4 0 23 -14 42 -31 19 -17 60
-53 90 -79 30 -27 65 -57 76 -67 81 -69 118 -98 120 -96 2 1 21 -14 42 -35 51
-49 82 -73 82 -65 0 4 7 -2 15 -13 8 -10 15 -15 15 -10 0 5 10 -3 21 -18 12
-15 23 -25 26 -22 3 2 13 -3 22 -12 32 -31 71 -62 71 -57 0 3 8 -3 18 -12 34
-32 62 -53 62 -46 0 4 7 -2 15 -13 8 -10 15 -16 15 -11 0 4 8 -1 18 -10 35
-33 62 -53 62 -45 0 4 5 -1 11 -10 5 -10 14 -18 19 -18 6 0 21 -10 36 -22 14
-13 29 -23 33 -23 4 0 15 -7 24 -15 33 -30 47 -41 47 -35 0 3 12 -6 27 -20 26
-23 37 -29 47 -22 2 1 14 -9 26 -23 12 -14 18 -18 14 -10 -4 8 5 3 20 -12 16
-15 32 -26 36 -23 4 3 11 -2 14 -11 4 -9 9 -14 12 -11 4 3 18 -5 32 -19 15
-13 30 -24 34 -24 5 0 10 0 13 0 3 0 14 -9 25 -20 12 -12 25 -18 30 -15 6 4
10 2 10 -2 0 -9 62 -49 69 -44 2 1 8 -4 13 -13 5 -9 13 -14 19 -11 5 4 9 2 9
-3 0 -5 18 -17 40 -28 22 -10 40 -22 40 -26 0 -5 4 -8 10 -8 5 0 31 -13 57
-28 41 -24 85 -48 228 -126 11 -6 22 -13 25 -16 7 -8 54 -28 61 -26 3 0 13 -7
23 -17 10 -9 22 -15 27 -12 5 4 9 1 9 -5 0 -6 4 -9 9 -6 5 4 11 2 13 -2 4 -10
220 -117 231 -114 4 1 7 -2 7 -7 0 -9 48 -26 63 -23 4 1 7 -2 7 -7 0 -8 37
-24 53 -22 4 1 7 -3 7 -8 0 -9 48 -26 63 -23 4 1 7 -3 7 -8 0 -6 4 -10 10 -10
10 0 131 -52 163 -70 10 -6 22 -8 27 -5 6 4 10 1 10 -4 0 -6 4 -11 9 -11 5 0
25 -7 45 -15 20 -8 38 -15 41 -15 3 0 18 -6 34 -14 16 -9 31 -12 35 -9 3 4 6
1 6 -5 0 -7 4 -12 9 -12 5 0 22 -5 38 -12 15 -6 30 -12 33 -13 3 -1 12 -4 20
-8 81 -31 188 -70 200 -72 8 -2 15 -4 15 -5 0 -1 7 -3 15 -5 37 -8 45 -10 50
-17 3 -4 15 -9 25 -11 11 -2 29 -7 40 -11 11 -5 37 -14 58 -22 20 -8 37 -11
37 -8 0 4 6 2 13 -4 6 -6 14 -10 17 -10 8 0 153 -43 185 -55 17 -6 35 -12 40
-13 6 0 12 -2 15 -3 3 -2 13 -4 23 -7 9 -2 23 -6 30 -7 6 -2 26 -7 42 -11 17
-4 35 -9 40 -11 6 -1 13 -3 17 -4 4 -1 22 -7 40 -12 18 -6 44 -13 58 -16 14
-2 30 -6 35 -7 6 -2 24 -6 40 -10 17 -4 41 -12 55 -16 14 -5 39 -11 55 -13 17
-3 48 -9 70 -15 22 -6 56 -14 75 -17 45 -9 65 -13 65 -15 0 -2 36 -9 79 -15
21 -3 42 -7 46 -10 4 -3 23 -7 41 -10 40 -5 74 -12 149 -27 30 -6 66 -12 80
-13 14 -2 42 -6 63 -9 20 -3 54 -9 75 -12 20 -3 53 -8 72 -10 19 -3 46 -7 60
-9 14 -1 44 -6 66 -9 23 -4 63 -9 90 -11 27 -3 69 -8 94 -11 71 -8 142 -15
310 -29 327 -27 1117 -27 1385 0 23 3 76 7 116 11 103 7 206 18 284 28 22 3
63 8 90 11 85 10 175 22 210 29 32 6 118 19 138 22 9 1 18 2 20 4 2 2 15 4 87
14 25 4 52 8 60 11 18 5 65 14 104 20 15 2 37 7 48 11 11 3 30 8 41 9 40 7
119 22 127 25 3 1 10 3 15 5 6 1 12 3 15 4 3 2 14 4 25 6 34 6 78 15 120 27
22 6 47 12 55 13 8 2 15 4 15 5 0 1 8 3 19 5 46 9 122 28 131 34 6 3 16 6 24
8 8 1 26 5 40 9 14 4 32 6 39 5 6 -1 12 2 12 7 0 5 6 9 13 10 28 2 73 14 81
22 5 5 15 6 22 3 8 -3 14 0 14 5 0 6 9 9 20 7 11 -2 20 1 20 7 0 6 3 9 6 5 3
-3 25 1 47 10 23 8 47 16 54 17 7 1 16 5 19 9 4 4 17 7 29 7 12 0 25 3 29 8 4
4 12 8 17 8 5 1 11 3 14 4 3 1 8 3 13 4 4 1 22 6 40 10 17 4 32 12 32 18 0 6
3 9 6 5 5 -5 58 10 104 30 8 3 24 8 34 10 11 2 25 8 32 14 7 5 25 12 40 15 16
3 34 10 41 16 7 6 13 8 13 4 0 -4 15 1 33 11 17 9 36 16 41 15 4 -2 15 3 23
10 8 6 24 13 34 15 11 2 36 11 57 22 20 10 55 24 77 31 22 7 46 17 53 23 8 6
24 13 35 14 12 2 24 8 25 13 2 6 8 8 13 4 5 -3 9 0 9 5 0 6 3 10 8 9 14 -4 82
24 82 33 0 6 4 8 9 5 4 -3 38 10 75 29 37 19 70 35 74 36 18 5 138 65 143 72
3 5 8 8 10 8 11 -4 69 22 69 31 0 5 4 7 9 3 5 -3 15 0 23 7 7 7 20 14 28 16 8
2 18 9 22 15 4 7 8 8 8 4 0 -9 91 42 101 56 3 5 10 9 15 8 13 0 97 42 112 56
6 6 22 15 34 19 13 4 34 15 48 24 30 21 123 74 130 75 8 1 65 39 71 48 3 5 9
7 12 5 4 -1 14 4 24 12 10 8 31 21 46 29 15 8 27 18 27 23 0 5 4 7 10 3 5 -3
18 3 30 15 11 11 20 17 20 13 0 -4 7 2 16 13 8 10 12 13 9 5 -5 -9 1 -8 19 4
14 10 26 22 26 27 0 5 4 7 8 4 5 -3 19 5 33 17 14 12 31 23 39 25 8 2 22 11
31 22 9 11 19 16 23 13 3 -3 8 2 12 11 3 9 10 13 15 10 5 -3 12 2 15 10 3 9 9
14 14 11 4 -2 17 5 28 16 12 11 22 16 22 12 0 -4 5 0 11 9 5 10 15 18 20 18 6
0 20 10 31 23 11 12 16 15 12 7 -5 -10 1 -8 16 5 14 11 30 25 37 30 7 6 19 16
27 22 8 7 19 13 23 13 5 0 19 10 33 23 14 12 58 46 99 75 88 64 96 71 126 99
12 13 27 23 34 23 6 0 11 5 11 10 0 6 5 10 10 10 5 0 19 8 29 17 49 46 82 73
87 73 6 0 38 28 91 78 13 12 27 22 30 22 3 0 16 11 29 26 13 14 24 21 24 17 0
-9 20 19 20 29 0 3 -19 0 -42 -7 -24 -7 -51 -11 -60 -9 -10 1 -18 -1 -18 -4 0
-24 -343 -21 -450 4 -43 9 -55 12 -55 14 0 1 -13 4 -28 6 -16 3 -38 14 -50 24
-11 11 -25 20 -29 20 -10 0 -22 10 -84 68 -24 23 -42 42 -38 42 4 0 -2 10 -13
23 -37 40 -80 111 -93 152 -7 22 -16 45 -20 50 -13 17 -27 138 -29 255 l-2 75
-19 -23 c-10 -13 -22 -22 -25 -22 -7 1 -55 -35 -90 -66 -13 -12 -26 -19 -29
-17 -3 3 -8 -2 -12 -11 -3 -9 -12 -16 -20 -16 -7 0 -20 -10 -28 -22 -9 -12
-16 -18 -16 -13 -1 6 -12 -3 -26 -20 -15 -16 -23 -23 -19 -15 3 8 -3 4 -14 -9
-12 -13 -21 -19 -21 -15 -1 5 -10 -2 -20 -15 -11 -13 -20 -20 -20 -17 0 3 -30
-16 -67 -42 -38 -27 -83 -57 -100 -67 -18 -11 -33 -24 -33 -29 0 -5 -3 -7 -6
-3 -4 3 -15 -4 -26 -16 -11 -12 -16 -16 -12 -8 6 12 -59 -31 -103 -69 -7 -6
-13 -7 -13 -3 0 4 -7 0 -14 -10 -8 -10 -17 -18 -20 -18 -13 1 -42 -14 -64 -33
-13 -12 -28 -21 -33 -21 -5 0 -13 -6 -18 -13 -5 -8 -11 -13 -15 -13 -17 2 -24
-1 -44 -19 -12 -12 -22 -18 -22 -15 0 4 -13 -3 -29 -14 -16 -12 -34 -21 -40
-21 -6 0 -11 -4 -11 -10 0 -5 -7 -10 -15 -10 -8 0 -15 -5 -15 -12 0 -6 -3 -8
-7 -5 -6 7 -73 -29 -84 -46 -3 -5 -10 -9 -15 -8 -16 0 -94 -42 -94 -51 0 -5
-4 -7 -9 -3 -5 3 -15 0 -23 -7 -7 -7 -20 -14 -28 -16 -8 -2 -18 -9 -22 -15 -4
-7 -8 -9 -8 -4 0 8 -103 -44 -108 -56 -2 -4 -7 -5 -12 -2 -5 3 -16 -2 -24 -11
-9 -8 -16 -12 -16 -9 0 4 -16 -2 -36 -14 -19 -12 -42 -21 -50 -21 -8 0 -14 -5
-14 -11 0 -5 -4 -7 -10 -4 -5 3 -10 1 -10 -5 0 -6 -4 -9 -9 -5 -5 3 -16 -2
-25 -10 -8 -9 -19 -16 -23 -17 -14 -1 -37 -10 -114 -44 -42 -19 -82 -34 -88
-34 -6 0 -11 -5 -11 -11 0 -5 -4 -8 -8 -5 -5 3 -19 -1 -33 -7 -13 -7 -40 -19
-59 -26 -19 -8 -48 -20 -65 -26 -54 -23 -150 -60 -155 -60 -16 -2 -87 -29 -97
-38 -7 -5 -13 -6 -13 -2 0 4 -7 2 -15 -5 -8 -7 -15 -9 -15 -5 0 4 -7 1 -17 -6
-9 -8 -18 -13 -19 -12 -8 5 -64 -10 -64 -17 0 -3 -6 -7 -12 -8 -45 -5 -78 -16
-78 -24 0 -5 -4 -7 -9 -4 -4 3 -31 -3 -60 -13 -28 -11 -51 -17 -51 -14 0 3 -7
0 -15 -7 -8 -7 -15 -10 -15 -6 0 3 -12 1 -28 -5 -15 -6 -34 -12 -42 -14 -8 -3
-40 -11 -70 -20 -53 -15 -78 -22 -110 -30 -8 -2 -15 -4 -15 -5 0 -1 -9 -3 -20
-5 -27 -5 -60 -13 -60 -15 0 -1 -9 -3 -20 -5 -11 -2 -35 -8 -52 -13 -18 -6
-33 -8 -33 -5 0 3 -6 0 -13 -6 -8 -6 -16 -9 -18 -7 -2 3 -31 -2 -64 -11 -33
-8 -70 -15 -82 -16 -13 0 -23 -5 -23 -10 0 -4 -4 -6 -8 -3 -5 3 -24 1 -43 -4
-38 -10 -89 -20 -134 -26 -16 -2 -41 -6 -55 -9 -14 -3 -41 -8 -60 -11 -19 -2
-57 -8 -85 -14 -61 -11 -119 -19 -240 -34 -16 -2 -57 -7 -90 -11 -97 -12 -221
-24 -305 -30 -25 -2 -97 -7 -160 -11 -139 -10 -795 -10 -935 -1 -138 9 -220
16 -285 22 -30 3 -77 7 -105 9 -27 2 -66 6 -85 9 -19 3 -62 9 -95 13 -33 3
-69 8 -80 11 -11 2 -40 6 -65 8 -25 3 -52 6 -60 8 -8 2 -37 7 -65 11 -75 12
-90 14 -90 16 0 1 -9 3 -20 5 -34 6 -109 19 -125 21 -16 2 -49 9 -90 19 -14 3
-36 8 -50 11 -14 2 -36 6 -50 8 -14 3 -25 5 -25 6 0 2 -26 8 -65 15 -14 3 -52
12 -85 20 -33 9 -73 18 -88 21 -16 2 -34 7 -40 11 -7 4 -16 8 -22 9 -53 10
-216 56 -375 107 -19 6 -38 12 -42 13 -5 1 -10 3 -13 4 -3 1 -8 3 -12 4 -5 2
-33 10 -63 19 -30 9 -59 17 -64 16 -5 0 -12 3 -15 8 -3 5 -29 16 -58 25 -56
18 -175 63 -208 79 -12 6 -27 12 -35 13 -8 2 -29 9 -47 16 -18 6 -35 11 -39
10 -4 -1 -10 3 -14 9 -3 6 -15 13 -26 16 -10 2 -38 13 -61 24 -23 12 -49 21
-58 21 -8 0 -15 5 -15 10 0 6 -7 10 -15 10 -9 0 -42 13 -74 30 -32 16 -61 26
-65 23 -3 -4 -6 -1 -6 6 0 7 -4 9 -10 6 -5 -3 -10 -1 -10 4 0 6 -5 11 -11 11
-16 0 -280 130 -301 147 -9 8 -22 12 -27 8 -6 -3 -11 -1 -11 5 0 9 -49 34 -59
30 -2 -1 -7 2 -10 7 -11 15 -68 43 -75 36 -3 -3 -6 -1 -6 5 0 7 -15 18 -34 26
-18 8 -37 19 -40 25 -4 6 -12 9 -17 6 -5 -4 -9 -1 -9 4 0 6 -6 11 -14 11 -7 0
-19 7 -26 15 -7 9 -15 13 -18 11 -2 -3 -20 6 -38 21 -19 14 -34 22 -34 19 0
-4 -10 2 -22 13 -11 11 -25 18 -30 15 -4 -3 -8 -1 -8 5 0 5 -9 13 -20 16 -11
3 -26 13 -34 20 -8 8 -19 16 -26 17 -7 2 -24 13 -38 25 -13 13 -28 20 -33 17
-5 -3 -9 0 -9 7 0 7 -3 9 -7 6 -3 -4 -13 2 -20 13 -8 11 -18 18 -23 15 -4 -3
-10 -1 -12 3 -5 12 -98 74 -98 66 0 -4 -7 1 -15 12 -8 10 -15 15 -15 10 0 -4
-9 2 -20 15 -10 13 -19 21 -20 17 0 -7 -25 11 -55 40 -8 6 -18 12 -24 12 -6 0
-11 5 -11 11 0 5 -4 7 -10 4 -5 -3 -10 -1 -10 5 0 6 -8 14 -17 17 -9 4 -27 15
-39 26 -12 10 -25 17 -28 16 -3 -2 -13 6 -21 19 -9 12 -22 22 -28 22 -7 0 -19
9 -27 19 -7 11 -17 18 -22 15 -4 -3 -8 0 -8 5 0 6 -19 23 -42 38 -24 15 -49
36 -56 45 -7 10 -18 18 -23 18 -5 0 -21 10 -34 23 -37 35 -80 71 -104 87 -13
8 -33 24 -45 35 -66 58 -91 80 -95 80 -3 0 -29 24 -58 52 -29 29 -53 51 -53
49 0 -2 -20 16 -44 40 -24 23 -47 40 -50 37 -3 -4 -6 1 -6 9 0 9 -11 23 -23
31 -28 18 -312 303 -413 414 -135 147 -144 158 -144 166 0 5 -4 5 -10 2 -5 -3
-10 -1 -10 4 0 6 -8 19 -17 30 -10 10 -28 31 -40 47 -46 59 -54 69 -48 57 3
-7 4 -13 0 -13 -3 0 -9 8 -13 19 -8 21 -62 89 -107 134 -16 17 -21 25 -10 18
11 -8 5 0 -13 18 -18 17 -30 31 -27 31 5 0 -71 100 -100 131 -8 9 -15 19 -15
22 0 7 -24 38 -52 69 -10 10 -15 18 -11 18 3 0 -3 10 -14 22 -11 13 -30 39
-42 60 -12 20 -28 39 -36 42 -8 3 -15 15 -15 26 0 12 -4 18 -10 15 -5 -3 -10
1 -10 9 0 8 -6 21 -13 28 -7 7 -18 25 -24 40 -7 16 -17 28 -23 28 -5 0 -10 6
-10 14 0 7 -12 26 -27 41 -16 16 -21 25 -13 20 15 -8 -15 33 -33 46 -5 3 -8
10 -6 14 2 8 -17 38 -39 61 -7 7 -12 15 -10 16 4 6 -36 68 -45 68 -4 0 -6 4
-2 9 3 5 -2 16 -10 24 -8 9 -15 20 -15 25 0 5 -7 15 -15 22 -8 7 -12 16 -10
21 3 4 -2 12 -11 17 -9 5 -15 11 -13 13 5 9 -13 49 -22 49 -5 0 -9 7 -9 15 0
8 -5 15 -11 15 -5 0 -8 4 -4 9 3 5 -1 15 -8 23 -7 7 -20 28 -28 46 -7 17 -18
32 -22 32 -5 0 -5 5 -2 10 3 6 1 10 -5 10 -6 0 -9 4 -6 8 3 5 -2 18 -12 28 -9
10 -19 28 -20 39 -2 11 -10 24 -18 28 -8 5 -12 12 -9 18 4 5 1 9 -4 9 -6 0
-10 3 -9 8 4 11 -56 132 -65 132 -5 0 -5 5 -2 10 3 6 2 10 -2 10 -5 0 -9 10
-10 22 -1 12 -9 25 -17 30 -8 5 -13 15 -10 23 4 8 1 15 -5 15 -6 0 -11 9 -11
20 0 11 -5 20 -11 20 -5 0 -7 5 -4 10 3 6 1 10 -5 10 -6 0 -9 4 -5 9 3 5 0 15
-7 23 -7 7 -13 18 -14 23 0 6 -10 32 -22 58 -12 27 -22 53 -22 58 0 5 -5 9
-12 9 -6 0 -8 3 -5 6 3 4 1 16 -5 28 -7 11 -12 24 -13 28 0 3 -3 10 -8 14 -4
4 -7 16 -7 26 0 10 -4 18 -8 18 -4 0 -8 10 -9 22 -1 11 -7 24 -13 28 -7 4 -12
11 -12 16 -1 10 -5 27 -15 52 -3 9 -7 20 -7 24 -1 3 -4 10 -8 14 -5 4 -8 16
-8 26 0 10 -5 18 -12 18 -6 0 -9 3 -6 6 3 3 -3 29 -14 57 -11 29 -20 58 -21
65 0 6 -4 12 -8 12 -5 0 -6 7 -3 15 4 8 1 15 -5 15 -6 0 -10 3 -10 8 1 4 0 9
-1 12 -1 3 -3 12 -5 20 -5 20 -43 131 -52 150 -3 8 -5 19 -4 24 1 4 -4 14 -10
22 -6 8 -9 14 -5 14 5 0 1 15 -30 95 -4 11 -8 25 -9 30 -1 6 -3 12 -4 15 -2 3
-4 12 -6 20 -2 8 -9 33 -15 55 -6 22 -13 47 -15 55 -2 8 -4 15 -5 15 -1 0 -3
7 -5 15 -2 8 -6 25 -9 38 -3 12 -8 30 -10 40 -2 9 -12 46 -21 82 -9 36 -19 73
-21 83 -2 10 -6 27 -9 37 -6 19 -14 51 -20 85 -3 20 -8 40 -22 100 -3 17 -8
37 -9 45 -1 8 -5 29 -9 45 -7 33 -14 66 -19 105 -2 14 -5 25 -6 25 -1 0 -3 11
-5 25 -4 33 -14 98 -20 130 -3 14 -7 40 -10 58 -3 17 -8 49 -11 70 -8 56 -14
102 -20 152 -3 25 -7 59 -9 75 -11 86 -25 231 -30 305 -2 25 -7 95 -11 155
-10 142 -10 806 0 955 4 63 9 138 11 165 2 28 6 77 10 110 3 33 8 78 10 100 2
22 6 61 9 88 10 78 18 141 21 167 2 14 6 47 10 74 3 27 7 51 9 55 2 3 7 31 11
61 3 30 8 62 10 70 5 17 13 64 30 160 2 14 7 39 11 55 4 17 7 40 7 53 1 12 4
22 7 22 3 0 6 8 7 18 1 18 8 52 24 117 5 22 12 51 15 65 2 14 6 32 8 40 1 8 8
33 14 55 6 22 13 51 16 65 2 14 5 25 6 25 1 0 3 7 5 15 2 8 15 56 29 105 35
121 35 122 40 144 3 11 9 28 15 39 6 11 8 22 4 25 -3 4 -1 12 5 20 6 7 13 24
15 37 7 33 46 150 58 173 5 10 7 22 4 27 -4 6 -3 10 2 10 8 0 49 119 45 133
-1 4 2 7 7 7 5 0 12 13 16 30 3 16 15 48 26 71 11 22 18 43 15 46 -3 3 2 12
10 20 8 8 12 19 9 24 -4 5 -2 9 3 9 5 0 9 7 10 15 1 8 3 22 4 30 1 8 5 15 10
15 5 0 7 3 5 8 -3 4 4 25 15 47 11 22 21 47 23 55 4 17 31 78 44 100 6 8 18
34 28 57 17 39 43 58 43 31 0 -6 3 -9 6 -5 3 3 17 -6 29 -19 13 -14 26 -24 28
-22 3 2 15 -10 27 -25 12 -15 24 -26 27 -23 3 2 13 -3 22 -12 38 -37 72 -62
82 -62 5 0 7 -4 4 -10 -3 -5 -2 -10 3 -10 5 0 25 -13 43 -30 19 -16 37 -30 41
-30 3 0 20 -13 36 -30 17 -16 34 -30 39 -30 5 0 15 -9 23 -20 8 -11 17 -20 21
-20 4 0 26 -18 50 -40 24 -21 45 -37 48 -35 2 3 10 -3 17 -13 17 -23 23 -14
30 39 3 24 7 55 9 69 11 66 15 88 19 123 2 21 8 52 12 70 4 18 8 43 9 57 1 14
5 39 8 55 3 17 9 46 11 65 3 19 7 44 10 55 2 11 7 40 10 65 3 25 8 56 10 70
10 56 18 106 21 130 2 14 6 41 10 60 4 19 9 49 11 65 2 17 6 46 9 65 5 39 11
77 20 130 3 19 7 46 10 60 2 14 6 40 9 58 9 48 14 82 21 136 3 27 8 52 9 55 2
3 7 33 11 66 3 32 8 62 11 66 2 3 6 26 8 50 3 24 8 60 11 79 4 19 9 49 11 65
3 17 7 44 9 60 3 17 7 44 9 60 3 17 7 39 9 50 3 11 8 40 11 65 3 25 8 54 10
65 2 11 6 41 10 66 4 25 9 57 11 70 13 80 17 107 20 129 1 14 6 40 10 58 4 19
8 43 10 55 10 77 17 126 22 152 3 17 7 39 8 50 8 55 16 103 20 125 3 14 8 41
10 60 7 58 13 93 20 135 4 22 9 48 11 58 3 18 -11 23 -21 7z"/>
<path d="M1913 15154 c-23 -6 -45 -9 -48 -6 -3 3 -5 0 -5 -6 0 -7 -3 -11 -7
-10 -15 4 -53 -13 -53 -23 0 -6 -4 -8 -8 -5 -5 3 -33 -17 -63 -44 -30 -27 -49
-50 -44 -50 6 0 2 -5 -7 -11 -10 -5 -18 -16 -18 -23 0 -8 -7 -19 -15 -26 -9
-7 -13 -15 -10 -18 3 -3 0 -11 -7 -19 -6 -7 -8 -16 -5 -20 4 -3 2 -12 -4 -19
-12 -15 -16 -122 -6 -167 11 -53 29 -97 38 -97 6 0 8 -4 5 -9 -3 -5 5 -20 19
-35 13 -14 22 -26 19 -26 -3 0 4 -9 15 -21 10 -11 22 -20 25 -20 3 0 17 -11
30 -24 14 -14 32 -25 41 -25 8 0 15 -4 15 -9 0 -8 35 -22 70 -27 8 -1 33 -5
55 -9 49 -9 2383 -10 2445 -1 105 15 129 26 219 103 40 35 100 133 108 178 17
87 5 228 -21 247 -5 3 -11 14 -12 23 -3 21 -52 85 -65 85 -6 0 -7 5 -4 10 3 6
-2 13 -12 17 -10 4 -20 9 -23 13 -14 18 -85 58 -93 53 -5 -3 -12 -1 -16 5 -4
6 -27 14 -51 18 -80 12 -2459 10 -2507 -2z"/>
<path d="M25650 15159 c-85 -9 -104 -12 -110 -21 -3 -4 -15 -9 -27 -11 -22 -3
-93 -53 -106 -74 -5 -7 -14 -10 -20 -7 -7 4 -9 4 -5 -1 4 -4 2 -13 -5 -20 -24
-25 -42 -52 -45 -66 -2 -8 -8 -16 -13 -17 -5 -2 -7 -8 -3 -13 3 -5 0 -9 -7 -9
-7 0 -10 -3 -6 -6 3 -3 0 -22 -7 -42 -8 -21 -12 -66 -10 -102 3 -75 6 -87 22
-116 6 -12 8 -24 5 -28 -3 -3 -1 -6 6 -6 7 0 9 -4 6 -10 -3 -5 -1 -10 4 -10 6
0 11 -7 11 -15 0 -8 5 -15 11 -15 5 0 8 -3 6 -7 -2 -5 16 -27 40 -50 24 -24
43 -39 43 -35 0 4 7 -2 15 -12 8 -11 15 -16 15 -12 0 5 12 0 27 -9 46 -31 118
-43 260 -44 338 -4 2281 -2 2308 2 61 8 105 19 105 27 0 4 12 11 26 14 14 4
31 11 37 16 43 34 72 64 69 71 -1 5 5 9 14 9 8 0 13 4 10 9 -3 5 1 12 10 15 9
4 14 9 11 12 -3 4 3 15 13 26 10 11 21 36 26 56 4 21 9 44 11 52 15 56 2 185
-20 201 -5 3 -8 8 -6 10 5 9 -13 49 -22 49 -6 0 -8 4 -5 9 10 16 -87 108 -148
140 -32 17 -62 28 -67 25 -5 -3 -9 -1 -9 3 0 5 -10 10 -22 11 -55 6 -2390 6
-2448 1z"/>
<path d="M8360 6581 c-25 -9 -48 -20 -51 -24 -3 -5 -9 -7 -12 -5 -4 1 -15 -5
-26 -14 -11 -9 -21 -15 -23 -13 -2 2 -21 -14 -42 -35 -21 -22 -35 -40 -31 -40
4 0 -3 -9 -16 -21 -13 -11 -17 -18 -9 -14 10 4 9 2 -2 -8 -10 -8 -15 -17 -11
-20 3 -4 2 -7 -4 -7 -10 0 -47 -66 -41 -73 2 -1 -7 -13 -19 -26 -12 -13 -31
-43 -42 -67 -11 -23 -25 -45 -31 -49 -6 -3 -8 -11 -5 -16 4 -5 2 -9 -4 -9 -5
0 -13 -10 -17 -22 -3 -13 -12 -30 -19 -38 -8 -8 -15 -22 -17 -30 -2 -8 -5 -17
-8 -20 -17 -17 -53 -76 -53 -87 0 -7 -3 -13 -7 -13 -6 0 -30 -44 -33 -60 0 -3
-5 -9 -9 -15 -25 -31 -55 -84 -50 -89 3 -3 1 -6 -5 -6 -9 0 -17 -17 -22 -45
-1 -3 -10 -14 -21 -25 -11 -11 -20 -26 -20 -34 0 -7 -7 -19 -15 -26 -8 -7 -12
-16 -9 -21 3 -5 1 -9 -4 -9 -8 0 -23 -25 -33 -55 -1 -5 -11 -19 -21 -29 -9
-10 -15 -23 -12 -28 3 -4 0 -8 -5 -8 -6 0 -11 -5 -11 -11 0 -6 -7 -17 -15 -26
-8 -8 -13 -18 -10 -23 3 -4 -2 -11 -11 -14 -8 -3 -12 -10 -9 -16 3 -5 1 -10
-5 -10 -6 0 -8 -4 -5 -10 3 -5 1 -10 -4 -10 -6 0 -11 -6 -11 -14 0 -7 -7 -19
-15 -26 -9 -7 -13 -15 -11 -18 3 -2 -2 -11 -10 -19 -8 -8 -12 -18 -9 -23 3 -4
-2 -11 -11 -14 -8 -3 -12 -10 -9 -16 3 -5 2 -10 -2 -10 -9 0 -50 -71 -45 -77
1 -2 -7 -13 -18 -25 -18 -20 -21 -27 -19 -44 0 -3 -6 -11 -15 -17 -8 -7 -16
-19 -18 -27 -2 -8 -11 -23 -20 -34 -10 -10 -15 -23 -12 -28 3 -4 0 -8 -6 -8
-6 0 -8 -4 -5 -10 3 -5 2 -10 -3 -10 -8 0 -56 -78 -57 -93 0 -4 -6 -12 -14
-16 -7 -5 -10 -14 -7 -20 4 -6 3 -11 -1 -11 -5 0 -17 -13 -26 -30 -10 -16 -15
-30 -11 -30 4 0 -3 -9 -16 -20 -13 -11 -20 -20 -16 -20 4 0 -8 -24 -27 -52
-33 -52 -47 -82 -46 -95 1 -3 -6 -10 -15 -15 -9 -5 -14 -13 -11 -19 4 -5 2 -9
-3 -9 -8 0 -35 -46 -36 -63 -1 -4 -6 -11 -12 -15 -5 -4 -18 -25 -28 -47 -10
-22 -26 -49 -35 -59 -13 -16 -13 -18 -1 -11 12 7 12 5 -1 -11 -18 -21 -18 -21
-23 -123 -4 -76 3 -105 38 -181 23 -50 131 -164 146 -155 6 4 10 1 10 -5 0 -6
5 -8 10 -5 6 3 10 2 10 -3 0 -17 109 -41 173 -37 75 3 127 14 127 26 0 5 3 9
8 8 15 -2 52 14 52 22 0 5 3 8 8 7 10 -4 53 28 46 34 -3 4 3 9 13 12 18 6 80
95 75 109 -1 4 2 7 8 7 5 0 10 7 10 15 0 8 5 15 10 15 6 0 10 5 10 11 0 6 9
23 20 39 11 15 17 30 13 34 -3 3 -1 6 6 6 7 0 9 5 6 10 -3 6 -1 10 5 10 6 0
16 14 21 30 6 17 15 30 21 30 5 0 6 5 3 10 -3 6 -1 10 5 10 6 0 8 5 5 10 -3 6
-2 10 3 10 6 0 19 20 31 44 11 25 25 47 31 51 6 3 8 11 5 16 -4 5 -1 9 4 9 6
0 11 7 11 15 0 8 4 15 9 15 5 0 12 11 15 25 4 14 16 35 27 46 11 11 17 24 14
29 -4 6 -3 10 2 10 4 0 19 21 33 48 14 26 30 53 37 60 7 8 11 18 8 23 -4 5 -1
9 4 9 6 0 11 7 11 15 0 8 5 15 12 15 6 0 9 3 5 6 -3 3 2 14 11 25 9 11 17 23
17 27 0 4 10 21 22 38 12 17 20 34 16 38 -3 3 -1 6 5 6 7 0 12 5 12 11 0 6 9
23 20 39 11 15 17 30 13 34 -3 3 -1 6 6 6 7 0 9 5 6 10 -3 6 -1 10 5 10 6 0
15 10 20 23 6 12 14 29 19 37 34 55 56 96 53 103 -1 4 2 7 6 7 8 0 34 47 34
60 0 3 6 9 14 13 8 4 14 16 14 27 0 10 4 20 9 22 5 2 11 9 13 17 2 8 11 23 21
33 10 10 15 23 12 27 -2 5 2 11 10 15 8 3 15 15 15 26 0 11 4 20 8 20 5 0 16
15 26 33 9 17 28 50 41 72 27 44 43 77 42 85 -1 3 7 14 16 25 9 11 17 23 17
28 0 4 9 17 19 29 11 11 18 24 16 28 -2 4 4 16 15 27 10 12 16 24 13 27 -4 3
-1 6 5 6 7 0 12 5 12 12 0 6 12 27 27 46 15 20 20 32 12 27 -8 -4 -4 3 9 17
12 13 19 28 15 31 -3 4 0 7 7 7 7 0 10 3 7 7 -4 3 1 12 11 20 11 10 12 12 2 8
-10 -4 -9 -2 2 8 10 8 15 17 11 20 -3 4 -2 7 4 7 11 0 49 69 45 83 -1 4 2 7 7
7 5 0 13 12 19 28 6 15 13 36 18 47 25 67 21 207 -7 241 -6 7 -8 18 -4 24 3 5
3 10 -2 10 -4 0 -14 12 -20 28 -7 15 -31 48 -54 72 -23 25 -38 38 -35 30 4 -8
-1 -5 -11 6 -59 70 -237 104 -343 65z"/>
<path d="M21070 6583 c-54 -15 -89 -32 -114 -55 -10 -10 -24 -14 -30 -11 -6 3
-8 2 -3 -2 4 -5 -5 -17 -20 -27 -16 -10 -24 -18 -20 -18 4 0 -1 -10 -13 -22
-19 -21 -60 -97 -68 -128 -10 -33 -10 -190 -2 -195 6 -4 10 -17 10 -31 0 -13
5 -24 12 -24 6 0 9 -3 5 -6 -3 -4 1 -13 9 -21 8 -8 12 -19 9 -24 -4 -5 -1 -9
5 -9 6 0 8 -4 5 -10 -3 -5 -2 -10 3 -10 5 0 17 -16 26 -35 9 -19 21 -37 26
-40 6 -4 8 -11 5 -16 -4 -5 -1 -9 4 -9 6 0 11 -7 11 -15 0 -8 5 -15 11 -15 5
0 8 -4 5 -9 -3 -5 1 -14 9 -21 8 -7 15 -19 15 -26 0 -8 5 -14 11 -14 5 0 8 -4
5 -9 -4 -5 -3 -11 1 -13 5 -1 19 -23 32 -48 14 -25 36 -63 50 -85 14 -22 24
-43 23 -47 -1 -5 3 -8 8 -8 6 0 10 -6 10 -14 0 -8 7 -22 16 -30 8 -9 12 -16 7
-16 -4 0 -3 -4 2 -8 11 -7 25 -32 59 -97 12 -22 27 -46 34 -53 7 -8 10 -17 7
-22 -3 -4 2 -11 11 -14 8 -3 12 -10 9 -16 -3 -5 -1 -10 4 -10 6 0 11 -5 11
-11 0 -6 7 -17 15 -26 8 -8 13 -19 10 -24 -4 -5 -1 -9 4 -9 6 0 11 -7 11 -15
0 -8 5 -15 11 -15 5 0 7 -4 4 -10 -3 -5 -2 -10 4 -10 5 0 13 -10 17 -22 3 -12
13 -28 20 -36 8 -7 12 -17 9 -22 -3 -4 2 -11 11 -14 8 -3 12 -10 9 -16 -3 -5
-1 -10 4 -10 6 0 11 -6 11 -14 0 -7 7 -19 15 -26 8 -7 12 -16 9 -21 -3 -5 -1
-9 5 -9 5 0 15 -16 21 -35 6 -19 16 -35 21 -35 6 0 8 -4 5 -8 -3 -5 4 -19 15
-30 11 -12 17 -22 15 -22 -3 0 8 -23 24 -50 17 -28 30 -55 30 -61 0 -6 5 -7
10 -4 6 3 10 -3 10 -14 0 -12 5 -21 11 -21 5 0 7 -4 4 -10 -3 -5 -3 -10 2 -10
4 0 15 -15 22 -32 8 -18 30 -57 48 -85 18 -29 33 -56 32 -59 0 -4 3 -10 8 -13
4 -3 17 -23 27 -43 11 -21 23 -38 28 -38 5 0 6 -4 3 -10 -3 -5 -1 -10 5 -10 6
0 9 -4 6 -8 -3 -5 2 -18 12 -28 9 -11 18 -26 20 -34 2 -8 9 -18 15 -22 7 -4 8
-8 2 -8 -7 0 -7 -3 0 -8 6 -4 19 -24 30 -44 11 -21 24 -38 29 -38 5 0 6 -3 3
-7 -4 -3 1 -12 11 -20 11 -10 12 -12 2 -8 -12 5 -12 4 1 -7 9 -7 17 -17 18
-23 4 -23 115 -207 128 -212 7 -3 13 -10 13 -15 0 -10 50 -54 60 -52 3 1 10
-6 16 -14 6 -8 41 -25 79 -37 54 -18 85 -23 140 -20 88 5 95 6 95 17 0 5 4 7
9 4 24 -15 191 110 191 143 0 6 4 11 9 11 8 0 24 37 22 53 -1 4 3 7 8 7 22 0
37 192 18 240 -27 71 -51 120 -59 120 -5 0 -7 4 -4 9 3 5 -1 14 -9 21 -8 7
-15 19 -15 26 0 8 -5 14 -11 14 -5 0 -7 5 -4 10 3 6 1 10 -5 10 -6 0 -8 5 -5
10 3 6 2 10 -2 10 -5 0 -24 29 -42 65 -19 36 -38 65 -43 65 -5 0 -6 5 -3 10 3
6 1 10 -6 10 -7 0 -9 3 -6 6 4 4 -2 19 -13 34 -11 16 -20 33 -20 39 0 6 -3 11
-8 11 -4 0 -13 13 -20 30 -7 16 -24 45 -37 64 -13 19 -21 37 -18 40 3 3 -2 8
-11 12 -9 3 -14 10 -11 14 3 5 -1 15 -9 23 -8 8 -12 17 -9 21 4 3 1 6 -5 6 -6
0 -16 16 -23 34 -7 19 -16 33 -21 30 -4 -3 -8 2 -8 11 0 9 -8 29 -18 43 -10
15 -24 39 -32 55 -7 15 -17 27 -22 27 -5 0 -6 5 -3 10 3 6 1 10 -5 10 -6 0 -8
5 -5 10 3 6 0 13 -9 16 -8 3 -12 12 -9 20 3 7 -2 17 -11 20 -9 3 -13 10 -10
15 3 5 -2 12 -10 15 -9 3 -14 10 -11 14 2 4 -8 26 -25 48 -16 22 -26 43 -23
46 4 3 1 6 -6 6 -7 0 -9 5 -6 10 3 6 2 10 -4 10 -6 0 -13 11 -17 25 -3 14 -10
25 -16 25 -5 0 -6 5 -3 10 3 6 1 10 -4 10 -6 0 -11 7 -11 15 0 8 -4 15 -10 15
-5 0 -10 9 -10 20 0 10 -8 24 -17 29 -10 6 -14 11 -10 11 4 0 -1 10 -12 22
-11 11 -18 25 -15 30 3 4 0 8 -5 8 -6 0 -11 7 -11 15 0 8 -5 15 -11 15 -5 0
-7 5 -4 10 3 6 1 10 -4 10 -6 0 -11 6 -11 14 0 7 -7 19 -15 26 -8 7 -12 16 -9
21 3 5 0 9 -7 9 -7 0 -10 3 -6 6 3 4 -5 22 -20 40 -14 19 -22 34 -19 34 4 0
-2 10 -13 22 -11 11 -18 25 -15 30 3 4 0 8 -5 8 -6 0 -11 7 -11 15 0 8 -4 15
-10 15 -5 0 -10 5 -10 11 0 6 -9 23 -20 39 -11 15 -17 29 -14 32 2 3 -2 11
-11 18 -8 7 -15 19 -15 26 0 8 -3 14 -7 14 -5 0 -21 27 -38 60 -16 33 -33 60
-38 60 -4 0 -5 5 -2 10 3 6 3 10 -2 10 -4 0 -19 23 -32 50 -14 28 -29 50 -34
50 -4 0 -6 4 -3 9 4 5 2 11 -3 13 -5 1 -11 10 -13 18 -2 8 -6 19 -11 25 -4 5
-22 33 -40 60 -37 58 -89 111 -117 120 -11 4 -20 11 -20 16 0 6 -4 7 -10 4 -5
-3 -10 -1 -10 4 0 6 -10 11 -23 11 -13 0 -27 3 -31 7 -19 20 -147 24 -206 6z"/>
</g>
</svg>
